<svg width="38" height="23" viewBox="0 0 38 23" fill="none" xmlns="http://www.w3.org/2000/svg">
<path d="M2.03884 2.88703C1.27443 2.88703 0.661133 2.26483 0.661133 1.50931C0.661133 0.744899 1.28332 0.131592 2.03884 0.131592H36.1884C36.9528 0.131592 37.5661 0.753787 37.5661 1.50931C37.5661 2.27372 36.9439 2.88703 36.1884 2.88703H2.03884Z" fill="#809E26"/>
<path d="M2.03884 12.931C1.27443 12.931 0.661133 12.3088 0.661133 11.5533C0.661133 10.7888 1.28332 10.1755 2.03884 10.1755H36.1884C36.9528 10.1755 37.5661 10.7977 37.5661 11.5533C37.5661 12.3177 36.9439 12.931 36.1884 12.931H2.03884Z" fill="#809E26"/>
<path d="M8.43828 22.9661C7.67387 22.9661 7.06055 22.3439 7.06055 21.5884C7.06055 20.824 7.68276 20.2107 8.43828 20.2107H36.1881C36.9525 20.2107 37.5658 20.8329 37.5658 21.5884C37.5658 22.3528 36.9436 22.9661 36.1881 22.9661H8.43828Z" fill="#809E26"/>
</svg>
