<svg width="18" height="11" viewBox="0 0 18 11" fill="none" xmlns="http://www.w3.org/2000/svg">
<path d="M1.96417 0.817679C1.52603 0.372432 0.810794 0.367682 0.365547 0.803455C-0.0796999 1.2416 -0.0844481 1.95683 0.353694 2.40208L8.16448 10.3834L8.1692 10.3881L8.17631 10.3952L8.19053 10.4071L8.19761 10.4142L8.21184 10.426L8.21895 10.4331L8.23314 10.4449L8.24026 10.452L8.25448 10.4639L8.26156 10.471L8.27579 10.4829L8.2829 10.49L8.29709 10.5018L8.30421 10.5089L8.3184 10.5207L8.32551 10.5255L8.33974 10.535L8.34682 10.5397L8.36341 10.5492L8.37053 10.5539L8.38709 10.5633L8.3942 10.5681L8.41077 10.5776L8.41788 10.5823L8.43445 10.5918L8.44393 10.5965L8.46052 10.606L8.46761 10.6107L8.4842 10.6202L8.50788 10.6297H8.51025L8.51736 10.6344L8.53393 10.6415L8.54104 10.6439L8.55761 10.651L8.56709 10.6534L8.58365 10.6605L8.59314 10.6629L8.61207 10.6699L8.61918 10.6723L8.63815 10.677L8.66183 10.6841H8.6642L8.67365 10.6865L8.69262 10.6912L8.70207 10.6936L8.72104 10.6984L8.73049 10.7007L8.74945 10.7055L8.75891 10.7078L8.77787 10.7102L8.78736 10.7126L8.80629 10.715H8.81577L8.83471 10.7173H8.84419L8.86313 10.7197H8.87261L8.89155 10.7221H8.90103L8.91997 10.7244H8.92945H8.94839H8.95787H8.97681H8.98629H9.00522H9.01471H9.03364H9.04313H9.06206H9.07154L9.09048 10.7221H9.09996L9.1189 10.7197H9.12838L9.14732 10.7173H9.1568L9.17574 10.715H9.18522L9.20416 10.7126L9.21364 10.7102L9.23258 10.7078L9.23969 10.7055L9.25865 10.7007L9.26811 10.6984L9.28707 10.6936L9.29653 10.6912L9.31549 10.6865L9.32494 10.6841H9.32731L9.35099 10.677L9.36996 10.6723L9.37944 10.6699L9.396 10.6629L9.40549 10.6605L9.42205 10.6534L9.43154 10.651L9.4481 10.6439L9.45758 10.6415L9.47415 10.6344L9.48126 10.6297H9.48363L9.50494 10.6202L9.52153 10.6107L9.53099 10.606L9.54758 10.5965L9.55469 10.5918L9.57126 10.5823L9.57837 10.5776L9.59494 10.5681L9.60205 10.5633L9.61861 10.5539L9.62573 10.5492L9.64232 10.5397L9.65177 10.535L9.666 10.5255L9.67311 10.5207L9.68731 10.5089L9.69442 10.5018L9.70861 10.49L9.71572 10.4829L9.72995 10.471L9.73703 10.4639L9.75126 10.452L9.75837 10.4449L9.77256 10.4331L9.77967 10.426L9.7939 10.4142L9.80098 10.4071L9.8152 10.3952L9.82232 10.3881L9.82703 10.3834L17.6378 2.40208C18.076 1.95683 18.0688 1.2416 17.6236 0.803455C17.1783 0.365313 16.4631 0.372432 16.025 0.817679L9.0076 7.98663L1.99022 0.817679H1.96417Z" fill="#809E26"/>
</svg>
