<svg width="22" height="18" viewBox="0 0 22 18" fill="none" xmlns="http://www.w3.org/2000/svg">
<path d="M1.54605 10.015C1.1269 10.015 0.786255 9.67481 0.786255 9.2552C0.786255 8.83604 1.1269 8.49585 1.54605 8.49585H20.5398C20.959 8.49585 21.2996 8.83604 21.2996 9.2552C21.2996 9.67481 20.959 10.015 20.5398 10.015H1.54605Z" fill="#434242"/>
<path d="M12.2563 2.04564C11.9602 1.74952 11.9602 1.26793 12.2563 0.971355C12.5524 0.675238 13.034 0.675238 13.3306 0.971355L21.0769 8.71815C21.373 9.01426 21.373 9.49631 21.0769 9.79243L13.3306 17.5388C13.0345 17.8349 12.5529 17.8349 12.2563 17.5388C11.9602 17.2426 11.9602 16.7611 12.2563 16.4645L19.4655 9.25529L12.2563 2.04564Z" fill="#434242"/>
</svg>
