<svg width="12" height="21" viewBox="0 0 12 21" fill="none" xmlns="http://www.w3.org/2000/svg">
<path d="M0.584268 2.90675C0.0902692 2.42107 0.0838418 1.62661 0.569523 1.13265C1.0552 0.638647 1.85004 0.632144 2.344 1.11783L11.2013 9.78704L11.2059 9.79113L11.2142 9.79945L11.2285 9.81381L11.2369 9.82213L11.2512 9.83771L11.2588 9.84557L11.2728 9.86115L11.2803 9.86977L11.2936 9.88535L11.3011 9.89396L11.314 9.90984L11.3212 9.91862L11.3336 9.9348L11.3401 9.94357L11.3525 9.96021L11.3586 9.96928L11.3703 9.98591L11.3764 9.99499L11.3877 10.0124L11.3934 10.021L11.4043 10.0388L11.41 10.0475L11.4202 10.0653L11.4255 10.0739L11.4353 10.0921L11.4406 10.1012L11.4501 10.1198L11.4546 10.1288L11.4637 10.1473L11.4754 10.1722L11.4769 10.175L11.4807 10.184L11.489 10.2032L11.4928 10.212L11.5008 10.2312L11.5045 10.2407L11.5113 10.2599L11.5151 10.269L11.5219 10.2887L11.525 10.2978L11.531 10.3179L11.5389 10.3431L11.5401 10.3466L11.5427 10.356L11.548 10.3761L11.5503 10.3852L11.5556 10.4056L11.5575 10.4147L11.562 10.4351L11.5639 10.4441L11.5681 10.4649L11.5696 10.4739L11.573 10.4944L11.5745 10.5034L11.5775 10.5243L11.5786 10.5337L11.5809 10.5541L11.582 10.5636L11.5839 10.5843L11.5847 10.5934L11.5866 10.6143L11.587 10.6234L11.5877 10.6441L11.5881 10.6536L11.5885 10.6743L11.5888 10.6838V10.7046L11.5885 10.7136L11.5881 10.7348L11.5877 10.7439L11.587 10.7648L11.5866 10.7741L11.5847 10.7946L11.5839 10.8041L11.582 10.8248L11.5809 10.8339L11.5786 10.8547L11.5775 10.8638L11.5745 10.8845L11.573 10.8941L11.5696 10.9145L11.5681 10.9236L11.5639 10.9443L11.562 10.953L11.5575 10.9735L11.5556 10.9828L11.5503 11.0029L11.548 11.0123L11.5427 11.0324L11.5401 11.0415L11.5389 11.0453L11.531 11.0705L11.525 11.0907L11.5219 11.0993L11.5151 11.1189L11.5113 11.1285L11.5045 11.1477L11.5008 11.1568L11.4928 11.1761L11.489 11.1852L11.4807 11.2044L11.4769 11.2132L11.4754 11.2165L11.4637 11.2411L11.4546 11.2596L11.4501 11.2687L11.4406 11.2873L11.4353 11.2959L11.4255 11.314L11.4202 11.3231L11.41 11.341L11.4043 11.3496L11.3934 11.3674L11.3877 11.376L11.3764 11.3934L11.3703 11.4022L11.3586 11.4191L11.3525 11.4279L11.3401 11.4448L11.3336 11.4532L11.3212 11.4698L11.314 11.4781L11.3011 11.4945L11.2936 11.5028L11.2803 11.5187L11.2728 11.5273L11.2588 11.5424L11.2512 11.5507L11.2369 11.5663L11.2285 11.5742L11.2142 11.589L11.2059 11.5973L11.2013 11.6014L2.344 20.2704C1.85 20.7561 1.05517 20.7498 0.569523 20.2558C0.0838418 19.7618 0.0902692 18.9674 0.584268 18.4814L8.54016 10.6943L0.584268 2.90735V2.90675Z" fill="#FEFEFE"/>
</svg>
