<svg width="16" height="12" viewBox="0 0 16 12" fill="none" xmlns="http://www.w3.org/2000/svg">
<path d="M1.61994 1.73402C1.19967 1.73402 0.859131 1.39311 0.859131 0.973212C0.859131 0.552939 1.19967 0.212402 1.61994 0.212402H6.75593C7.17582 0.212402 7.51674 0.552939 7.51674 0.973212C7.51674 1.39311 7.17582 1.73402 6.75593 1.73402H1.61994ZM1.61994 11.5302C1.19967 11.5302 0.859131 11.1896 0.859131 10.7694C0.859131 10.3491 1.19967 10.0086 1.61994 10.0086H9.56185C9.98174 10.0086 10.3227 10.3491 10.3227 10.7694C10.3227 11.1896 9.98174 11.5302 9.56185 11.5302H1.61994ZM1.61994 6.53703C1.19967 6.53703 0.859131 6.19612 0.859131 5.77622C0.859131 5.35595 1.19967 5.01504 1.61994 5.01504H14.8403C15.2606 5.01504 15.6011 5.35595 15.6011 5.77622C15.6011 6.19612 15.2606 6.53703 14.8403 6.53703H1.61994Z" fill="#809E26"/>
</svg>
