<svg width="25" height="25" viewBox="0 0 25 25" fill="none" xmlns="http://www.w3.org/2000/svg">
<path d="M7.16278 6.03467H23.2655C23.8901 6.03467 24.3976 6.54217 24.3976 7.16678V23.2695C24.3976 23.8941 23.8901 24.4016 23.2655 24.4016H7.16278C6.53817 24.4016 6.03076 23.8941 6.03076 23.2695V7.16678C6.03076 6.54217 6.53817 6.03467 7.16278 6.03467ZM22.1334 8.29889H8.29492V22.1374H22.1334V8.29889Z" fill="#809E26"/>
<path d="M1.66962 0.38916H17.7723C18.397 0.38916 18.9045 0.896658 18.9045 1.52127V7.16672C18.9045 7.79134 18.397 8.29883 17.7723 8.29883H8.29362V17.6252C8.29362 18.2499 7.7861 18.7574 7.16148 18.7574H1.66962C1.045 18.7574 0.537598 18.2499 0.537598 17.6252V1.52127C0.537598 0.896658 1.045 0.38916 1.66962 0.38916ZM16.6403 2.65338H2.80176V16.4919H6.02934V7.16546C6.02934 6.54085 6.53687 6.03335 7.16148 6.03335H16.6403V2.65212V2.65338Z" fill="#809E26"/>
</svg>
