<svg width="198" height="15" viewBox="0 0 198 15" fill="none" xmlns="http://www.w3.org/2000/svg">
<path d="M177.235 7.79399C177.235 7.29432 177.13 6.84456 176.921 6.4447C176.71 6.04522 176.418 5.73255 176.043 5.50767C175.668 5.28278 175.246 5.17042 174.777 5.17042C174.307 5.17042 173.879 5.28278 173.495 5.50767C173.11 5.73255 172.81 6.04518 172.596 6.4447C172.381 6.84456 172.273 7.29432 172.273 7.79399C172.273 8.30383 172.381 8.7632 172.596 9.17292C172.81 9.58261 173.11 9.90481 173.495 10.1399C173.879 10.375 174.307 10.492 174.777 10.492C175.236 10.492 175.654 10.375 176.029 10.1399C176.403 9.90481 176.698 9.58261 176.913 9.17292C177.128 8.76323 177.235 8.30387 177.235 7.79399ZM171.524 7.79399C171.524 7.17454 171.666 6.61204 171.951 6.10745C172.236 5.60287 172.625 5.20305 173.12 4.90788C173.615 4.61347 174.167 4.46568 174.777 4.46568C175.376 4.46568 175.921 4.61075 176.411 4.90062C176.9 5.19049 177.287 5.59043 177.572 6.09989C177.857 6.60935 177.999 7.17451 177.999 7.79399C177.999 8.42364 177.857 8.99802 177.572 9.51773C177.287 10.0378 176.9 10.4475 176.411 10.7472C175.921 11.0466 175.376 11.1967 174.777 11.1967C174.177 11.1967 173.63 11.0466 173.135 10.7472C172.64 10.4475 172.248 10.0378 171.958 9.51773C171.668 8.99806 171.524 8.42368 171.524 7.79399ZM168.87 4.58576H169.635V11.0769H168.87V7.91377H165.033V11.0769H164.268V4.58576H165.033V7.20933H168.87V4.58576ZM159.711 10.3722C160.45 10.3722 160.995 10.27 161.345 10.0625C161.695 9.85762 161.87 9.50291 161.87 9.00022C161.87 8.49828 161.71 8.14114 161.39 7.93101C161.07 7.7186 160.555 7.61402 159.846 7.61402H158.482V10.3722H159.711ZM157.717 11.0769V4.58576H158.482V6.90959H159.981C160.87 6.90959 161.535 7.07681 161.975 7.41168C162.414 7.74616 162.634 8.26871 162.634 8.97814C162.634 9.69777 162.404 10.2271 161.944 10.5673C161.485 10.9067 160.78 11.0769 159.831 11.0769H157.717ZM149.832 11.1072V10.3123C149.872 10.3225 149.942 10.3274 150.042 10.3274C150.342 10.3274 150.594 10.0624 150.799 9.53285C151.004 9.00335 151.106 7.98874 151.106 6.48977V4.58576H155.289V11.0769H154.509V5.29019H151.841V6.89446C151.841 8.40364 151.683 9.49059 151.369 10.155C151.054 10.8195 150.641 11.1516 150.132 11.1516C150.022 11.1516 149.922 11.137 149.832 11.1072ZM147.718 7.89108V7.72624C147.718 7.29424 147.626 6.88675 147.441 6.49975C147.256 6.1146 146.981 5.80521 146.616 5.56786C146.251 5.33314 145.815 5.21549 145.305 5.21549C144.595 5.21549 144.02 5.44755 143.581 5.91508C143.141 6.37959 142.921 7.01473 142.921 7.81637C142.921 8.59873 143.136 9.23311 143.566 9.71766C143.995 10.2049 144.565 10.4475 145.275 10.4475C145.784 10.4475 146.224 10.3226 146.594 10.0728C146.963 9.82027 147.244 9.49777 147.433 9.10094C147.623 8.70599 147.718 8.30379 147.718 7.89108ZM147.748 4.58576H148.483V11.0769H147.748V9.66775C147.518 10.1376 147.188 10.5096 146.759 10.7848C146.329 11.0595 145.829 11.1967 145.26 11.1967C144.71 11.1967 144.195 11.0621 143.716 10.7923C143.236 10.5224 142.851 10.1322 142.562 9.62269C142.272 9.11285 142.127 8.5134 142.127 7.82363C142.127 7.14407 142.269 6.55249 142.554 6.04756C142.839 5.54298 143.223 5.1531 143.708 4.87794C144.193 4.60315 144.73 4.46568 145.32 4.46568C145.9 4.46568 146.397 4.5909 146.811 4.84073C147.226 5.09057 147.538 5.41511 147.748 5.81497V4.58576ZM135.636 9.54768L139.953 4.58576H140.238V11.0769H139.458V6.11471L135.156 11.0769H134.871V4.58576H135.636V9.54768ZM133.192 12.7707H132.457V11.0769H127.136V4.58576H127.9V10.3722H131.348V4.58576H132.113V10.3722H133.192V12.7707ZM123.943 4.58576H124.707V11.0769H123.943V7.91377H120.105V11.0769H119.34V4.58576H120.105V7.20933H123.943V4.58576ZM112.1 7.26922H116.882C116.832 6.88936 116.695 6.53979 116.47 6.21967C116.245 5.89992 115.958 5.64514 115.608 5.45504C115.258 5.26532 114.883 5.17042 114.484 5.17042C113.904 5.17042 113.389 5.3657 112.94 5.75538C112.49 6.14507 112.21 6.64935 112.1 7.26922ZM117.647 7.94371H112.055C112.075 8.44376 112.21 8.88596 112.46 9.27032C112.71 9.65547 113.029 9.95509 113.419 10.1701C113.809 10.3848 114.229 10.492 114.678 10.492C115.098 10.492 115.498 10.4023 115.878 10.2228C116.258 10.0425 116.547 9.80265 116.747 9.50291L117.272 9.98262C116.982 10.3923 116.603 10.697 116.132 10.897C115.663 11.0969 115.168 11.1967 114.648 11.1967C114.039 11.1967 113.479 11.0569 112.969 10.7772C112.46 10.4971 112.055 10.1023 111.755 9.59244C111.456 9.08298 111.306 8.5086 111.306 7.8687C111.306 7.1691 111.456 6.56205 111.755 6.04726C112.055 5.53251 112.45 5.14055 112.94 4.87068C113.429 4.6008 113.954 4.46568 114.514 4.46568C115.113 4.46568 115.653 4.61566 116.132 4.91574C116.612 5.21545 116.985 5.60279 117.25 6.07751C117.514 6.55222 117.647 7.03927 117.647 7.53932L117.647 7.94371ZM105.504 6.42988C105.504 7.11927 105.452 7.80374 105.347 8.4833C105.242 9.16287 105.084 9.79241 104.875 10.3722H108.322V5.29019H105.504V6.42988ZM109.087 10.3722H110.166V12.7707H109.432V11.0769H103.93V12.7707H103.196V10.3722H104.035C104.265 9.87252 104.445 9.25549 104.575 8.52111C104.705 7.78639 104.77 7.0091 104.77 6.18972V4.58576H109.087L109.087 10.3722ZM97.1694 9.54768L101.487 4.58576H101.771V11.0769H100.992V6.11471L96.6894 11.0769H96.4048V4.58576H97.1694V9.54768ZM91.2927 10.4768C91.7625 10.4768 92.1846 10.3625 92.5596 10.1323C92.9345 9.90254 93.2289 9.58756 93.444 9.18805C93.659 8.78819 93.7662 8.33313 93.7662 7.82363C93.7662 7.30396 93.659 6.84459 93.444 6.4447C93.2289 6.04522 92.9345 5.73255 92.5596 5.50767C92.1846 5.28278 91.7625 5.17042 91.2927 5.17042H91.1581V10.4768H91.2927ZM90.3783 10.4768V5.17042H90.2581C89.7887 5.17042 89.3662 5.28543 88.992 5.51523C88.6171 5.74502 88.3218 6.06257 88.1071 6.46738C87.8925 6.87216 87.7849 7.32888 87.7849 7.83875C87.7849 8.34859 87.8925 8.80335 88.1071 9.20287C88.3218 9.60272 88.6171 9.91502 88.992 10.1399C89.3662 10.3648 89.7887 10.4771 90.2581 10.4771L90.3783 10.4768ZM91.2927 4.46568C91.8925 4.46568 92.4371 4.61075 92.9269 4.90062C93.4167 5.19049 93.8037 5.59043 94.0887 6.09989C94.3732 6.60935 94.5157 7.18411 94.5157 7.82363C94.5157 8.47332 94.3706 9.05292 94.0811 9.5628C93.7912 10.0726 93.399 10.4699 92.9042 10.7545C92.4095 11.0395 91.8723 11.1819 91.2925 11.1819H91.1581V14.6744H90.3783V11.1819H90.2581C89.6587 11.1819 89.114 11.0395 88.6242 10.7545C88.1347 10.4699 87.7474 10.0726 87.4627 9.5628C87.1778 9.05296 87.0354 8.47828 87.0354 7.83875C87.0354 7.18906 87.1801 6.60708 87.47 6.09233C87.7599 5.57757 88.1521 5.17764 88.6469 4.89306C89.1416 4.6081 89.6787 4.46568 90.2581 4.46568H90.3783V0.583252H91.1581V4.46568H91.2927ZM84.3821 4.58576H85.1466V11.0769H84.3821V7.91377H80.5443V11.0769H79.7797V4.58576H80.5443V7.20933H84.3821V4.58576ZM77.1265 7.79399C77.1265 7.29432 77.0218 6.84456 76.8116 6.4447C76.6019 6.04522 76.3097 5.73255 75.9348 5.50767C75.5598 5.28278 75.1377 5.17042 74.6679 5.17042C74.1985 5.17042 73.771 5.28278 73.3862 5.50767C73.0015 5.73255 72.7018 6.04518 72.4872 6.4447C72.2721 6.84456 72.1647 7.29432 72.1647 7.79399C72.1647 8.30383 72.2721 8.7632 72.4872 9.17292C72.7018 9.58261 73.0015 9.90481 73.3862 10.1399C73.771 10.375 74.1985 10.492 74.6679 10.492C75.1279 10.492 75.5451 10.375 75.9197 10.1399C76.2942 9.90481 76.5895 9.58261 76.8045 9.17292C77.0192 8.76323 77.1265 8.30387 77.1265 7.79399ZM71.4149 7.79399C71.4149 7.17454 71.5575 6.61204 71.8425 6.10745C72.127 5.60287 72.5171 5.20305 73.0115 4.90788C73.5062 4.61347 74.0587 4.46568 74.6679 4.46568C75.2677 4.46568 75.8125 4.61075 76.3023 4.90062C76.7917 5.19049 77.179 5.59043 77.464 6.09989C77.7486 6.60935 77.8911 7.17451 77.8911 7.79399C77.8911 8.42364 77.7486 8.99802 77.464 9.51773C77.1791 10.0378 76.7917 10.4475 76.3023 10.7472C75.8124 11.0466 75.2677 11.1967 74.6679 11.1967C74.0685 11.1967 73.5213 11.0466 73.0266 10.7472C72.5318 10.4475 72.1395 10.0378 71.85 9.51773C71.5601 8.99806 71.4149 8.42368 71.4149 7.79399ZM70.2459 4.69101L67.5326 7.56896L70.8903 10.9717V11.0769H69.976L66.8578 7.98847H66.2283V11.0769H65.4636V4.58576H66.2283V7.31428H66.8727L69.4064 4.58576H70.2459V4.69101ZM58.3733 7.89108V7.72624C58.3733 7.29424 58.2807 6.88675 58.0958 6.49975C57.911 6.1146 57.6362 5.80521 57.2711 5.56786C56.9068 5.33314 56.4695 5.21549 55.9601 5.21549C55.2503 5.21549 54.6754 5.44755 54.2358 5.91508C53.7962 6.37959 53.5763 7.01443 53.5763 7.81607C53.5763 8.59843 53.791 9.23311 54.2207 9.71766C54.6504 10.2049 55.2204 10.4475 55.9298 10.4475C56.4393 10.4475 56.8793 10.3223 57.2489 10.0724C57.6189 9.81997 57.8985 9.49777 58.0883 9.10094C58.2784 8.70599 58.3733 8.30379 58.3733 7.89108ZM58.4032 4.58576H59.1379V11.0769H58.4032V9.66775C58.1734 10.1376 57.8437 10.5096 57.414 10.7848C56.9843 11.0595 56.4843 11.1967 55.9147 11.1967C55.3652 11.1967 54.8504 11.0621 54.3708 10.7923C53.8911 10.5224 53.5064 10.1322 53.2165 9.62269C52.9266 9.11285 52.7815 8.5134 52.7815 7.82363C52.7815 7.14407 52.9244 6.55219 53.2089 6.04726C53.4939 5.54268 53.8783 5.1531 54.3632 4.87794C54.8478 4.60315 55.3852 4.46568 55.9748 4.46568C56.5546 4.46568 57.0516 4.5909 57.4662 4.84073C57.8812 5.09057 58.1935 5.41511 58.4032 5.81497L58.4032 4.58576ZM51.3573 4.69101L48.6441 7.56896L52.0022 10.9717V11.0769H51.0878L47.9697 7.98847H47.3402V11.0769H46.5755V4.58576H47.3402V7.31428H47.9846L50.5179 4.58576H51.3573V4.69101ZM39.5448 9.54768L43.8622 4.58576H44.1472V11.0769H43.3675V6.11471L39.0652 11.0769H38.7803V4.58576H39.5448V9.54768ZM35.0476 11.0769H34.2829V5.29019H32.0942V4.58576H37.2363V5.29019H35.0476V11.0769ZM25.948 9.54768L30.2653 4.58576H30.5503V11.0769H29.7706V6.11471L25.4684 11.0769H25.1834V4.58576H25.948V9.54768ZM17.2982 11.1072V10.3123C17.3382 10.3225 17.4082 10.3274 17.5083 10.3274C17.808 10.3274 18.0605 10.0624 18.2654 9.53285C18.4702 9.00335 18.5726 7.98844 18.5726 6.48946V4.58576H22.755V11.0769H21.9757V5.29019H19.3074V6.89446C19.3074 8.40364 19.1497 9.49059 18.8349 10.155C18.5205 10.8195 18.1078 11.1516 17.5983 11.1516C17.4883 11.1516 17.3885 11.137 17.2982 11.1072ZM15.7244 7.79399C15.7244 7.29432 15.6197 6.84456 15.41 6.4447C15.1998 6.04522 14.9076 5.73255 14.5327 5.50767C14.1577 5.28278 13.7356 5.17042 13.2662 5.17042C12.7964 5.17042 12.3689 5.28278 11.9841 5.50767C11.5997 5.73255 11.2997 6.04518 11.085 6.4447C10.87 6.84456 10.7626 7.29432 10.7626 7.79399C10.7626 8.30383 10.87 8.7632 11.085 9.17292C11.2997 9.58261 11.5997 9.90481 11.9841 10.1399C12.3689 10.375 12.7964 10.492 13.2662 10.492C13.7258 10.492 14.1431 10.375 14.518 10.1399C14.8926 9.90481 15.1873 9.58261 15.4024 9.17292C15.6171 8.76323 15.7244 8.30387 15.7244 7.79399ZM10.0128 7.79399C10.0128 7.17454 10.1556 6.61204 10.4402 6.10745C10.7251 5.60287 11.1149 5.20305 11.6097 4.90788C12.1044 4.61347 12.6566 4.46568 13.2662 4.46568C13.8656 4.46568 14.4102 4.61075 14.9 4.90062C15.3898 5.19049 15.7769 5.59043 16.0619 6.09989C16.3469 6.60935 16.489 7.17451 16.489 7.79399C16.489 8.42364 16.3469 8.99802 16.0619 9.51773C15.777 10.0378 15.3898 10.4475 14.9 10.7472C14.4102 11.0466 13.8656 11.1967 13.2662 11.1967C12.6663 11.1967 12.119 11.0466 11.6243 10.7472C11.1296 10.4475 10.7377 10.0378 10.4477 9.51773C10.1579 8.99806 10.0128 8.42368 10.0128 7.79399ZM0.254028 11.0769V0.583252H7.6895V11.0769H6.82022V1.37782H1.12369V11.0769H0.254028ZM179.348 7.77887C179.348 7.10951 179.498 6.52444 179.798 6.02518C180.098 5.52551 180.503 5.14055 181.013 4.87068C181.522 4.6008 182.087 4.46568 182.707 4.46568C183.187 4.46568 183.641 4.54829 184.071 4.71309C184.501 4.8779 184.865 5.12074 185.165 5.44052L184.7 6.02518C184.481 5.75531 184.191 5.5451 183.831 5.39545C183.471 5.24539 183.091 5.17042 182.692 5.17042C182.222 5.17042 181.79 5.27288 181.395 5.47772C181 5.68257 180.685 5.98231 180.451 6.37725C180.216 6.77181 180.098 7.2395 180.098 7.77887C180.098 8.30875 180.216 8.77866 180.451 9.18835C180.685 9.59804 181.005 9.9177 181.41 10.1475C181.815 10.3773 182.267 10.492 182.767 10.492C183.196 10.492 183.586 10.4119 183.936 10.2524C184.286 10.0925 184.566 9.8774 184.775 9.60756L185.255 10.1024C184.965 10.432 184.605 10.697 184.176 10.897C183.746 11.0969 183.256 11.1967 182.707 11.1967C182.037 11.1967 181.447 11.0443 180.938 10.7397C180.428 10.4347 180.036 10.0222 179.761 9.50291C179.486 8.98324 179.348 8.40856 179.348 7.77887ZM188.748 11.0769H187.984V5.29019H185.795V4.58576H190.936V5.29019H188.748V11.0769ZM193.245 9.54768L197.563 4.58576H197.847V11.0769H197.068V6.11471L192.765 11.0769H192.481V4.58576H193.245V9.54768Z" fill="#FEFEFE"/>
</svg>
