<svg width="204" height="157" viewBox="0 0 204 157" fill="none" xmlns="http://www.w3.org/2000/svg">
<path d="M160.267 135.609H160.585H166.085H166.404L166.52 135.898L174.567 155.438L174.799 156.017H174.162H169.183H168.864L168.748 155.728L163.335 142.296L157.922 155.728L157.806 156.017H157.488H152.509H151.872L152.103 155.438L160.151 135.898L160.267 135.609Z" fill="#FEFEFE"/>
<path d="M187.7 140.443H185.731V144.207H187.7C189.244 144.207 190.334 144.067 190.971 143.787C191.608 143.507 191.926 143.02 191.926 142.325C191.926 141.63 191.608 141.143 190.971 140.863C190.334 140.583 189.244 140.443 187.7 140.443ZM180.203 135.609H180.637H185.239H187.7C190.845 135.609 193.19 136.212 194.734 137.418C196.278 138.625 197.05 140.231 197.05 142.238C197.05 144.824 195.931 146.677 193.692 147.796L197.774 155.41L198.092 156.017H197.397H192.65H192.332L192.216 155.757L188.655 149.041H187.7H185.731V155.583V156.017H185.239H180.637H180.203V155.583V136.043V135.609L180.203 135.609Z" fill="#FEFEFE"/>
<path d="M131.165 135.609H131.599H148.447H148.881V136.043V140.009V140.443H148.447H142.918V155.583V156.017H142.455H137.563H137.099V155.583V140.443H131.599H131.165V140.009V136.043V135.609Z" fill="#FEFEFE"/>
<path d="M113.88 141.891C113.88 142.181 114.29 142.441 115.11 142.673C115.93 142.904 116.924 143.16 118.091 143.439C119.259 143.719 120.426 144.081 121.594 144.525C122.761 144.969 123.755 145.649 124.576 146.566C125.396 147.482 125.806 148.588 125.806 149.881C125.806 152.042 125 153.667 123.389 154.758C121.777 155.848 119.534 156.394 116.659 156.394C113.166 156.394 110.203 155.583 107.771 153.962L107.482 153.73L107.685 153.383L109.856 149.822L110.087 149.446L110.464 149.678C110.715 149.832 111.048 150.015 111.462 150.228C111.877 150.44 112.664 150.725 113.822 151.082C114.979 151.439 116.051 151.617 117.035 151.617C117.71 151.617 118.275 151.554 118.728 151.429C119.182 151.303 119.5 151.135 119.683 150.923C119.867 150.71 119.987 150.513 120.045 150.329C120.103 150.146 120.132 149.938 120.132 149.707C120.132 149.34 119.91 149.017 119.466 148.737C119.022 148.457 118.448 148.221 117.744 148.028C117.04 147.835 116.263 147.642 115.414 147.449C114.564 147.256 113.716 147.009 112.866 146.711C112.017 146.412 111.24 146.064 110.536 145.669C109.832 145.273 109.258 144.737 108.813 144.062C108.37 143.386 108.148 142.605 108.148 141.717C108.148 139.633 108.997 138.031 110.695 136.912C112.393 135.793 114.449 135.233 116.861 135.233C118.057 135.233 119.191 135.359 120.262 135.609C121.334 135.86 122.226 136.178 122.94 136.564C123.654 136.95 124.175 137.25 124.503 137.462C124.831 137.674 125.111 137.877 125.343 138.07L125.372 138.099L125.603 138.301L125.43 138.62L123.345 141.978L123.085 142.383L122.709 142.094C122.631 142.016 122.351 141.838 121.869 141.558C121.386 141.278 120.615 140.965 119.553 140.617C118.492 140.27 117.45 140.096 116.427 140.096C115.442 140.096 114.772 140.284 114.415 140.661C114.058 141.037 113.88 141.447 113.88 141.891H113.88Z" fill="#FEFEFE"/>
<path d="M92.8011 140.443H90.804V144.207H92.8011C94.345 144.207 95.4403 144.067 96.087 143.787C96.7333 143.507 97.0564 143.02 97.0564 142.325C97.0564 141.63 96.7333 141.143 96.087 140.863C95.4403 140.583 94.345 140.443 92.8011 140.443ZM85.2749 135.609H85.7092H90.3406H92.8011C95.9275 135.609 98.2628 136.222 99.8064 137.447C101.35 138.673 102.123 140.299 102.123 142.325C102.123 144.371 101.35 146.001 99.8064 147.217C98.2629 148.433 95.9275 149.041 92.8011 149.041H90.804V155.583V156.017H90.3406H85.7092H85.2749V155.583V136.043V135.609V135.609Z" fill="#FEFEFE"/>
<path d="M55.0784 135.609H55.5126H60.6653H60.8969L61.0413 135.812L67.468 145.944L73.9522 135.812L74.097 135.609H74.3286H79.4813H79.9155V136.043V155.583V156.017H79.4813H74.9076H74.473V155.583V144.004L67.8441 154.223L67.468 154.83L67.0625 154.223L60.5205 144.004V155.583V156.017H60.0862H55.5126H55.0784V155.583V136.043V135.609Z" fill="#FEFEFE"/>
<path d="M35.1872 135.609H35.5054H41.0058H41.324L41.44 135.898L49.4874 155.438L49.7191 156.017H49.0823H44.1031H43.7845L43.6688 155.728L38.2554 142.296L32.8424 155.728L32.7267 156.017H32.4081H27.4293H26.7925L27.0238 155.438L35.0715 135.898L35.1872 135.609Z" fill="#FEFEFE"/>
<path d="M3.97725 153.426C1.83539 151.448 0.763916 148.915 0.763916 145.827C0.763916 142.74 1.83539 140.207 3.97725 138.229C6.11949 136.251 8.83093 135.261 12.1116 135.261C14.0221 135.261 15.7686 135.628 17.3511 136.362C18.9336 137.095 20.2073 138.118 21.1722 139.43L21.4326 139.778L21.0853 140.038L17.525 142.817L17.1776 143.077L16.8878 142.73C15.7494 141.321 14.1574 140.617 12.1116 140.617C10.4134 140.617 8.99989 141.104 7.87095 142.079C6.742 143.053 6.17734 144.303 6.17734 145.827C6.17734 147.352 6.742 148.602 7.87095 149.576C8.99989 150.551 10.4134 151.038 12.1116 151.038C14.0992 151.038 15.6915 150.315 16.8878 148.867L17.1776 148.52L17.525 148.78L21.0853 151.588L21.4326 151.849L21.1722 152.196C20.2073 153.528 18.9336 154.56 17.3511 155.293C15.7686 156.027 14.0221 156.394 12.1116 156.394C8.83093 156.394 6.11949 155.404 3.97725 153.426Z" fill="#FEFEFE"/>
<path fill-rule="evenodd" clip-rule="evenodd" d="M35.7114 156.017L38.2554 149.703L40.7998 156.017H35.7114Z" fill="#809E26"/>
<path fill-rule="evenodd" clip-rule="evenodd" d="M160.791 156.017L163.335 149.703L165.88 156.017H160.791Z" fill="#809E26"/>
<path d="M102.062 24.1912L73.3857 102.739C82.8924 83.4947 92.3987 64.2506 101.906 45.0067C107.135 55.5943 112.365 66.182 117.596 76.77H91.4549L139.258 94.1837L102.062 24.1912Z" fill="#FEFEFE"/>
<path fill-rule="evenodd" clip-rule="evenodd" d="M102.062 24.191L139.258 94.1835L91.4547 76.7698C88.2078 83.4501 84.9608 90.13 81.7142 96.8092C107.057 100.929 132.401 105.047 157.744 109.164C139.132 73.0388 120.518 36.9129 101.906 0.786621L50.0667 110.582L203.809 124.387C160.334 117.172 116.86 109.954 73.3856 102.738L102.062 24.191H102.062Z" fill="#809E26"/>
<path d="M101.906 0.786621C81.64 40.1398 61.3753 79.4931 41.1106 118.845C95.3434 120.693 149.575 122.541 203.809 124.387L50.0666 110.582L101.906 0.786621Z" fill="#FEFEFE"/>
</svg>
