<svg width="12" height="14" viewBox="0 0 12 14" fill="none" xmlns="http://www.w3.org/2000/svg">
<path d="M5.034 9.98622C4.42435 9.40227 3.79964 8.63953 3.29203 7.80727C2.84303 7.07065 2.48317 6.2754 2.30252 5.49644C2.25753 5.29992 2.27946 5.1004 2.35508 4.92539L2.36944 4.89636C2.44691 4.73231 2.57312 4.58992 2.7349 4.49166L3.94059 3.7606C3.99504 3.72733 4.03806 3.67735 4.06377 3.62026L4.07027 3.60756C4.09182 3.55387 4.09855 3.49304 4.08797 3.43183L3.721 1.31065C3.70777 1.23431 3.66773 1.16762 3.61219 1.1204C3.5559 1.07276 3.48361 1.04418 3.40727 1.04418L1.34402 1.03692C1.26503 1.03654 1.19131 1.06576 1.13501 1.11374C1.07796 1.16251 1.03754 1.23046 1.02545 1.30792C0.592317 4.04734 1.1566 6.53072 2.37133 8.52592C3.68093 10.6761 5.74649 12.2621 8.13403 12.9912C8.20356 13.0124 8.27615 13.0088 8.34076 12.9842C8.40424 12.96 8.46091 12.9144 8.4991 12.8521L9.52188 11.1885C9.56498 11.119 9.57818 11.0388 9.56498 10.9644L9.56347 10.9556C9.54873 10.8846 9.50785 10.8169 9.44475 10.7678L7.65024 9.37222C7.59919 9.33705 7.53987 9.31819 7.48055 9.31596C7.41518 9.31369 7.34826 9.33191 7.29083 9.3701L6.21028 10.0918C6.02585 10.2146 5.81152 10.2643 5.60361 10.2454C5.39575 10.2269 5.19359 10.1389 5.03407 9.98622H5.034ZM6.24151 1.54264C6.0941 1.45572 6.04578 1.26528 6.13308 1.11828C6.22 0.970866 6.41051 0.922396 6.55751 1.0097C7.84975 1.7792 8.95597 2.82505 9.79425 4.06397C10.614 5.27644 11.1798 6.67719 11.4138 8.18898C11.4403 8.35828 11.3238 8.51707 11.1549 8.54316C10.9856 8.56925 10.8269 8.45329 10.8008 8.28395C10.5816 6.86778 10.0498 5.55285 9.27802 4.41181C8.48923 3.24581 7.45095 2.26299 6.24151 1.54264ZM6.10812 3.71554C5.97319 3.60971 5.94975 3.41402 6.05595 3.27908C6.16177 3.14414 6.35754 3.12063 6.49248 3.22645C7.23968 3.81456 7.8837 4.52882 8.39278 5.33765C8.8917 6.12984 9.26055 7.01315 9.4688 7.95578C9.50585 8.12285 9.4001 8.28864 9.23303 8.32569C9.06558 8.36236 8.89964 8.25722 8.86259 8.08977C8.66984 7.21822 8.32889 6.40168 7.8674 5.66885C7.39722 4.92203 6.8005 4.26058 6.10812 3.71554ZM3.82225 7.48363C4.30151 8.26902 4.8904 8.98843 5.46448 9.53796C5.5193 9.59052 5.58876 9.62107 5.65942 9.62749C5.7297 9.63354 5.80229 9.61706 5.86464 9.57547L6.94716 8.85198C7.11461 8.74048 7.30921 8.68812 7.50233 8.6953C7.68449 8.70173 7.86551 8.76241 8.02045 8.87466L9.82677 10.2766C10.0116 10.4198 10.1298 10.6218 10.1729 10.8392L10.1756 10.8525C10.216 11.0747 10.1774 11.3109 10.0519 11.5146L9.02924 13.1784C8.91775 13.3602 8.74992 13.4937 8.55982 13.5659C8.37048 13.6373 8.15728 13.6477 7.9524 13.5849C5.41975 12.8105 3.22912 11.129 1.84051 8.84956C0.552808 6.73492 -0.0454276 4.10685 0.412276 1.21325C0.448571 0.983078 0.565701 0.782961 0.731224 0.641597C0.896785 0.499854 1.11263 0.415883 1.34394 0.416261L3.4072 0.423218C3.63699 0.423974 3.84974 0.507114 4.01341 0.645831C4.17784 0.784927 4.295 0.980356 4.33395 1.20599L4.70136 3.32717C4.73237 3.50858 4.70889 3.69126 4.63898 3.85527L4.63066 3.87584C4.55471 4.04367 4.42775 4.18991 4.26143 4.29082L3.05573 5.02218C3.00242 5.05432 2.96016 5.10097 2.93331 5.15466L2.92681 5.17099C2.90186 5.22918 2.89429 5.29451 2.90866 5.35761C3.07309 6.0678 3.40576 6.79991 3.82225 7.48363Z" fill="#718926"/>
</svg>
