<svg width="12" height="14" viewBox="0 0 12 14" fill="none" xmlns="http://www.w3.org/2000/svg">
<path d="M9.84691 9.71491C9.16962 10.5022 7.16085 12.5693 6.37886 13.3735L6.07685 13.6844C5.96574 13.8148 5.76921 13.8301 5.63919 13.7186L5.17468 13.2365C4.26683 12.2935 2.24059 10.1878 1.73 9.59211L1.72395 9.58454C1.30178 9.09924 0.96393 8.53757 0.733755 7.92341C0.510007 7.32661 0.387207 6.6815 0.387207 6.01063C0.387207 4.50561 0.997617 3.14248 1.98406 2.15603C2.97051 1.16958 4.33334 0.559326 5.83836 0.559326C7.34376 0.559326 8.70712 1.16958 9.69357 2.15603C10.6796 3.14248 11.29 4.50561 11.29 6.01063C11.29 6.69473 11.1547 7.3628 10.9143 7.97997C10.663 8.62664 10.2964 9.21682 9.85115 9.71007L9.84691 9.71491ZM7.91478 6.01063C7.91478 6.58323 7.68199 7.10219 7.30667 7.47788C6.93097 7.85472 6.41172 8.08705 5.83836 8.08705C5.26538 8.08705 4.74605 7.85449 4.37035 7.47879L4.35372 7.46064C3.98823 7.08646 3.76225 6.57454 3.76225 6.01063C3.76225 5.43841 3.99503 4.91938 4.37035 4.54368C4.74719 4.16723 5.26614 3.93452 5.83836 3.93452C6.41096 3.93452 6.92984 4.16715 7.30554 4.54247C7.68237 4.91817 7.91478 5.43765 7.91478 6.01063ZM6.86674 7.03871C7.12905 6.77639 7.29193 6.41242 7.29193 6.01063C7.29193 5.60964 7.12901 5.24593 6.86636 4.98286C6.60405 4.71979 6.24015 4.55729 5.83836 4.55729C5.43699 4.55729 5.07298 4.71991 4.81029 4.98256C4.54798 5.24525 4.3851 5.60922 4.3851 6.01063C4.3851 6.40557 4.54234 6.76354 4.79668 7.0251L4.81067 7.0381C5.07373 7.30117 5.43733 7.46427 5.83836 7.46427C6.23973 7.46427 6.60329 7.30136 6.86674 7.03871ZM5.93356 12.9404C6.71252 12.1391 8.71373 10.0796 9.37628 9.309L9.38883 9.29388C9.78567 8.85432 10.1118 8.32981 10.3348 7.75645C10.5472 7.21069 10.667 6.61874 10.667 6.01063C10.667 4.67722 10.1262 3.4699 9.25272 2.59642C8.37928 1.7226 7.17177 1.1824 5.83836 1.1824C4.50533 1.1824 3.29778 1.72298 2.4243 2.59642C1.55086 3.46986 1.01036 4.6776 1.01036 6.01063C1.01036 6.6097 1.11811 7.18151 1.31501 7.70685C1.51872 8.24996 1.81839 8.74702 2.19216 9.17713L2.20199 9.18801C2.69939 9.76818 4.71811 11.8666 5.62255 12.8058L5.84214 13.0341L5.93356 12.9404Z" fill="#718926"/>
</svg>
