<svg width="14" height="14" viewBox="0 0 14 14" fill="none" xmlns="http://www.w3.org/2000/svg">
<path d="M9.9537 9.12307C9.81574 9.33094 9.65747 9.5241 9.4817 9.69987L9.47974 9.70168C8.80282 10.3778 7.86893 10.7957 6.83862 10.7957C5.80794 10.7957 4.87291 10.3774 4.196 9.70047C3.51908 9.02469 3.10032 8.09004 3.10032 7.05784C3.10032 6.02565 3.51908 5.09047 4.19524 4.41431C4.87178 3.73815 5.80643 3.31939 6.83862 3.31939C7.87082 3.31939 8.80555 3.73815 9.4817 4.41431L9.49834 4.43216C9.66726 4.60373 9.8199 4.79088 9.9537 4.99232V3.83872C9.9537 3.66677 10.0932 3.52718 10.2652 3.52718C10.4371 3.52718 10.5766 3.66677 10.5766 3.83872V7.05784V9.70561C10.5766 9.92029 10.6638 10.1155 10.8048 10.2561L10.8177 10.27C10.9568 10.4027 11.1465 10.4842 11.3555 10.4842C11.4969 10.4842 11.6307 10.4481 11.7459 10.3846C11.8608 10.3212 11.9587 10.2294 12.0268 10.1191C12.297 9.66213 12.5087 9.16742 12.6508 8.64699C12.7876 8.14392 12.861 7.61116 12.861 7.05784C12.861 5.39448 12.1871 3.88848 11.0975 2.79885C10.0075 1.70923 8.50161 1.03518 6.83862 1.03518C5.17526 1.03518 3.66956 1.70923 2.57993 2.79885C1.49031 3.88848 0.815964 5.39448 0.815964 7.05784C0.815964 8.72083 1.49031 10.2265 2.57993 11.3165C3.66956 12.4062 5.17526 13.0799 6.83862 13.0799C7.43051 13.0799 8.00126 12.9952 8.53832 12.8376C9.09542 12.6743 9.61925 12.4318 10.0974 12.1241C10.2418 12.0311 10.4341 12.0735 10.5267 12.2179C10.6193 12.3619 10.5773 12.5545 10.433 12.6471C9.90685 12.9861 9.329 13.2534 8.71329 13.4341C8.11725 13.6091 7.48756 13.7033 6.83862 13.7033C5.00365 13.7033 3.34188 12.9589 2.13924 11.7566C0.936987 10.554 0.193115 8.89248 0.193115 7.05754C0.193115 5.22257 0.936949 3.5608 2.13924 2.35816C3.34188 1.15591 5.00369 0.412109 6.83862 0.412109C8.6736 0.412109 10.3351 1.15587 11.5377 2.35816C12.7403 3.5608 13.4842 5.22261 13.4842 7.05754C13.4842 7.66039 13.4022 8.24868 13.2491 8.81032C13.0915 9.38822 12.8583 9.93435 12.562 10.4352L12.5597 10.4388C12.4346 10.644 12.2563 10.8129 12.0454 10.9297C11.8402 11.0427 11.6039 11.1069 11.3556 11.1069C10.9788 11.1069 10.6356 10.9571 10.3831 10.7137L10.3642 10.6965C10.111 10.4429 9.95377 10.0922 9.95377 9.70561V9.12277L9.9537 9.12307ZM9.04177 9.26099C9.6053 8.69784 9.9537 7.91881 9.9537 7.05784C9.9537 6.20406 9.61097 5.43025 9.05614 4.86861L9.04132 4.8547C8.47779 4.29155 7.69883 3.94277 6.83862 3.94277C5.97842 3.94277 5.19908 4.29155 4.63593 4.8547C4.0724 5.41823 3.72355 6.19764 3.72355 7.05784C3.72355 7.91805 4.0724 8.69686 4.63593 9.26039C5.1987 9.82429 5.97766 10.1729 6.83862 10.1729C7.69959 10.1729 8.47862 9.82452 9.04177 9.26099Z" fill="#718926"/>
</svg>
