<svg width="29" height="28" viewBox="0 0 29 28" fill="none" xmlns="http://www.w3.org/2000/svg">
<path d="M11.9238 26.9153L26.0874 12.7516C27.4604 11.3787 28.1468 9.57757 28.1468 7.78271C28.1468 5.98785 27.4604 4.18039 26.0874 2.81377C24.7145 1.44086 22.9134 0.754395 21.1186 0.754395C19.3237 0.754395 17.5162 1.44086 16.1496 2.81377L1.84738 17.116C0.720082 18.2433 0.15332 19.7233 0.15332 21.1969C0.15332 22.6706 0.720082 24.1569 1.84738 25.2779L2.11199 25.0134H1.73406C1.73406 25.1141 1.77181 25.2086 1.84738 25.2779C2.97468 26.4052 4.45464 26.972 5.92831 26.9657C7.40199 26.9657 8.88195 26.3989 10.0092 25.2779L18.6436 16.6437C19.4938 15.7935 19.9219 14.6788 19.9219 13.564C19.9219 12.4808 19.5189 11.3976 18.7191 10.56L18.7128 10.5537L18.6436 10.4781L18.6121 10.453C18.5428 10.3963 18.4609 10.3648 18.3727 10.3648V10.7427L18.6373 10.4781L18.549 10.39L18.5238 10.3648C18.4671 10.3081 18.4043 10.2577 18.3413 10.2073C17.5352 9.53977 16.5464 9.20601 15.5576 9.20601C14.4429 9.20601 13.3283 9.62794 12.4781 10.4844L5.22935 17.7332C4.61217 18.3503 4.3036 19.1564 4.3036 19.9689C4.3036 20.775 4.61217 21.5874 5.22935 22.2046C5.84653 22.8217 6.65267 23.1303 7.46508 23.1303C8.2712 23.1303 9.08348 22.8217 9.70066 22.2046L15.9858 15.9194C16.137 15.7746 16.137 15.5353 15.9858 15.3841C15.841 15.2393 15.6017 15.2393 15.4506 15.3841L9.16545 21.6693C8.69312 22.1416 8.08226 22.3746 7.46508 22.3746C6.8479 22.3746 6.2369 22.1416 5.76457 21.6693C5.29223 21.2032 5.0593 20.586 5.0593 19.9752C5.0593 19.358 5.29223 18.7471 5.76457 18.2748L13.0133 11.026C13.7186 10.3207 14.6381 9.97432 15.5576 9.97432C16.4708 9.97432 17.3777 10.3207 18.083 11.0072L18.1019 11.026C18.1712 11.0953 18.2656 11.1331 18.3664 11.1331V10.7552L18.1019 11.0197C18.1838 11.1079 18.2657 11.1898 18.3413 11.2843C18.8829 11.9455 19.1536 12.7579 19.1599 13.564C19.1599 14.4835 18.8073 15.4093 18.1082 16.1083L9.47403 24.7426C8.49158 25.725 7.21306 26.21 5.92831 26.21C4.64357 26.21 3.3589 25.7187 2.37645 24.7426L2.11199 25.0071H2.48976C2.48976 24.9063 2.45202 24.8055 2.37645 24.7426C1.394 23.7601 0.90902 22.4817 0.90902 21.1906C0.90902 19.9059 1.40029 18.6211 2.37645 17.645L16.6786 3.3428C17.9067 2.11474 19.5063 1.50383 21.1123 1.50383C22.7182 1.50383 24.3242 2.11474 25.5459 3.3428C26.774 4.57086 27.3848 6.17048 27.3848 7.77641C27.3848 9.38234 26.774 10.982 25.5459 12.21L11.3823 26.3737C11.2374 26.5248 11.2374 26.7641 11.3823 26.909C11.5271 27.0601 11.7726 27.0601 11.9175 26.909L11.9238 26.9153Z" fill="#809E26"/>
</svg>
