<svg width="7" height="13" viewBox="0 0 7 13" fill="none" xmlns="http://www.w3.org/2000/svg">
<path d="M3.91463 11.8422C3.91463 12.0512 3.74589 12.22 3.53684 12.22C3.3278 12.22 3.15905 12.0512 3.15905 11.8422V1.75518L0.971626 3.94257C0.824288 4.08991 0.584991 4.08991 0.437652 3.94257C0.290314 3.79523 0.290314 3.55596 0.437652 3.40863L3.26481 0.581497L3.27108 0.575194L3.27748 0.568922L3.28375 0.562619L3.28498 0.561359L3.29125 0.556317L3.29248 0.555056L3.29888 0.550014L3.30134 0.548754L3.30638 0.544972L3.30896 0.543711L3.31388 0.53993L3.31646 0.53744L3.32151 0.533658L3.32396 0.531137L3.32901 0.528616L3.33282 0.526095L3.33663 0.523574L3.34044 0.521053L3.34413 0.518532L3.34795 0.51601L3.35176 0.513489L3.35545 0.510968L3.35926 0.508447L3.3643 0.505957L3.36811 0.503436L3.37316 0.500915L3.37685 0.498394L3.38189 0.495873L3.3857 0.493352L3.39074 0.490831L3.39455 0.48957L3.3996 0.487049L3.40833 0.483267L3.41214 0.482007L3.41718 0.479486L3.421 0.478225L3.42604 0.476965L3.42985 0.475735L3.43489 0.474474L3.43858 0.473214L3.44362 0.471953L3.44867 0.470693L3.45371 0.469432L3.45875 0.468172L3.46256 0.466911L3.47129 0.46439L3.47634 0.46313L3.48015 0.461869L3.48642 0.460609H3.489L3.49527 0.459348H3.49786L3.50413 0.458087H3.50659L3.51421 0.456827H3.51667L3.54434 0.455566L3.57214 0.456827H3.5746L3.58222 0.458087H3.58468L3.59095 0.459348H3.59353L3.59981 0.460609H3.60227L3.60866 0.461869L3.61235 0.46313L3.61739 0.46439L3.62625 0.466911L3.63006 0.468172L3.6351 0.469432L3.64014 0.470693L3.64519 0.471953L3.65023 0.473214L3.65392 0.474474L3.65896 0.475735L3.66277 0.476965L3.66781 0.478225L3.67163 0.479486L3.67667 0.482007L3.68036 0.483267L3.68921 0.487049L3.69425 0.48957L3.69807 0.490831L3.70311 0.493352L3.7068 0.495873L3.71184 0.498394L3.71565 0.500915L3.72069 0.503436L3.72451 0.505957L3.72955 0.508447L3.73324 0.510968L3.73705 0.513489L3.74086 0.51601L3.74468 0.518532L3.74836 0.521053L3.75218 0.523574L3.75599 0.526095L3.75968 0.528616L3.76472 0.531137L3.7673 0.533658L3.77235 0.53744L3.77481 0.53993L3.77985 0.543711L3.78243 0.544972L3.78747 0.548754L3.78993 0.550014L3.7962 0.555056L3.79756 0.556317L3.80383 0.561359L3.80506 0.562619L3.81133 0.568922L3.8176 0.575194L3.824 0.581497L6.65103 3.40863C6.79837 3.55596 6.79837 3.79523 6.65103 3.94257C6.50369 4.08991 6.26452 4.08991 6.11718 3.94257L3.92976 1.75518V11.8422H3.91463Z" fill="#809E26"/>
</svg>
