<svg width="7" height="13" viewBox="0 0 7 13" fill="none" xmlns="http://www.w3.org/2000/svg">
<path d="M3.93709 0.842146C3.93709 0.633102 3.76835 0.464355 3.5593 0.464355C3.35026 0.464355 3.18151 0.633102 3.18151 0.842146V10.9291L0.994087 8.74175C0.846749 8.59441 0.607452 8.59441 0.460113 8.74175C0.312775 8.88909 0.312775 9.12836 0.460113 9.27569L3.28727 12.1028L3.29355 12.1091L3.29982 12.1154L3.30621 12.1217L3.30744 12.123L3.31371 12.128L3.31494 12.1293L3.32134 12.1343L3.3238 12.1356L3.32884 12.1393L3.3313 12.1406L3.33634 12.1444L3.33892 12.1469L3.34397 12.1507L3.34643 12.1532L3.35147 12.1557L3.35528 12.1582L3.35909 12.1607L3.36278 12.1633L3.36659 12.1658L3.37041 12.1683L3.37422 12.1708L3.37791 12.1734L3.38172 12.1759L3.38676 12.1784L3.39058 12.1809L3.39562 12.1834L3.39931 12.186L3.40435 12.1884L3.40816 12.191L3.4132 12.1935L3.41702 12.1947L3.42206 12.1973L3.43079 12.2011L3.4346 12.2023L3.43964 12.2048L3.44346 12.2061L3.4485 12.2074L3.45219 12.2086L3.45723 12.2099L3.46104 12.2111L3.46608 12.2124L3.47113 12.2137L3.47617 12.2149L3.48121 12.2162L3.48502 12.2174L3.49375 12.2199L3.4988 12.2212L3.50261 12.2225L3.50888 12.2237H3.51146L3.51774 12.225H3.52019L3.52659 12.2262H3.52905L3.53667 12.2275H3.53913L3.5668 12.2288L3.5946 12.2275H3.59706L3.60468 12.2262H3.60714L3.61341 12.225H3.616L3.62227 12.2237H3.62473L3.63112 12.2225L3.63481 12.2212L3.63985 12.2199L3.64871 12.2174L3.65252 12.2162L3.65756 12.2149L3.6626 12.2137L3.66765 12.2124L3.67257 12.2111L3.67638 12.2099L3.68142 12.2086L3.68523 12.2074L3.69027 12.2061L3.69409 12.2048L3.69913 12.2023L3.70282 12.2011L3.71167 12.1973L3.71671 12.1947L3.72053 12.1935L3.72557 12.191L3.72926 12.1884L3.7343 12.186L3.73811 12.1834L3.74316 12.1809L3.74697 12.1784L3.75201 12.1759L3.7557 12.1734L3.75951 12.1708L3.76332 12.1683L3.76701 12.1658L3.77083 12.1633L3.77464 12.1607L3.77845 12.1582L3.78214 12.1557L3.78718 12.1532L3.78976 12.1507L3.79481 12.1469L3.79727 12.1444L3.80231 12.1406L3.80489 12.1393L3.80993 12.1356L3.81239 12.1343L3.81866 12.1293L3.82002 12.128L3.82629 12.123L3.82752 12.1217L3.83379 12.1154L3.84006 12.1091L3.84646 12.1028L6.67349 9.27569C6.82083 9.12836 6.82083 8.88909 6.67349 8.74175C6.52616 8.59441 6.28698 8.59441 6.13964 8.74175L3.95222 10.9291V0.842146H3.93709Z" fill="#809E26"/>
</svg>
