<svg width="33" height="34" viewBox="0 0 33 34" fill="none" xmlns="http://www.w3.org/2000/svg">
<path d="M29.0097 24.0729C28.2453 23.4596 27.4098 22.8729 26.5742 22.2863L26.0409 21.913C25.1787 21.3086 24.3877 20.9797 23.7032 21.0419C23.0544 21.1041 22.4233 21.5308 21.8189 22.4463C21.2856 23.2463 20.6367 23.6907 19.9256 23.8596C19.1523 24.0462 18.3257 23.8951 17.508 23.5218C15.7125 22.7041 14.1126 21.6641 12.7615 20.3753C11.4016 19.0776 10.2905 17.5132 9.47277 15.6733C9.0639 14.7577 8.86836 13.8689 9.01058 13.0245C9.16168 12.1356 9.67723 11.3268 10.6905 10.6424C11.0549 10.3935 11.4194 10.1268 11.6594 9.81575C11.8549 9.56687 11.9793 9.25578 11.9616 8.85579C11.926 8.18916 10.9572 6.56256 9.81944 5.00708C8.69949 3.48715 7.47288 2.10943 6.85068 1.87833C6.61958 1.78944 6.38847 1.75389 6.16625 1.75389C5.93515 1.75389 5.69518 1.79833 5.43742 1.88722L4.94853 2.06499C3.57082 2.62496 2.60198 3.47826 2.09534 4.51821C1.59758 5.55816 1.54425 6.82033 2.01534 8.20693L2.18423 8.65136C4.29969 13.8511 7.21511 18.2776 10.8772 21.9485C14.6103 25.6995 19.1346 28.686 24.3877 30.9526C24.761 31.1126 25.1876 31.2103 25.5076 31.2815L25.7743 31.3437C26.7254 31.3259 27.7831 30.8548 28.7075 30.1526C29.7296 29.3704 30.5741 28.3305 30.9385 27.2994C31.4274 25.9217 30.4674 25.1928 29.5252 24.464L29.0186 24.0729H29.0097ZM27.5164 20.9264C28.3697 21.513 29.223 22.1085 30.0496 22.7752L30.5207 23.1396C31.9518 24.2329 33.3917 25.3351 32.494 27.8505C32.0229 29.1838 30.974 30.5081 29.703 31.477C28.4764 32.4103 27.0187 33.0236 25.6498 33.0147H25.5254L25.1254 32.9169C24.7343 32.828 24.2188 32.7125 23.7121 32.4992C18.2724 30.1526 13.5704 27.0505 9.67722 23.1396C5.86406 19.3087 2.82419 14.7044 0.619846 9.30022L0.424298 8.75802C-0.189008 6.94477 -0.10013 5.25595 0.584284 3.82491C1.2687 2.40275 2.53975 1.26502 4.30856 0.545055L4.89521 0.331732C5.30408 0.198404 5.72183 0.118408 6.13959 0.118408C6.56624 0.118408 6.9929 0.189516 7.41066 0.34062C8.35284 0.687271 9.87277 2.30498 11.1527 4.04712C12.4504 5.81593 13.5526 7.78917 13.6059 8.78468C13.6504 9.64687 13.3837 10.3046 12.9571 10.8557C12.5838 11.3446 12.086 11.709 11.606 12.0379C11.0105 12.4379 10.7172 12.8734 10.6372 13.3267C10.5483 13.8245 10.6905 14.3933 10.9749 15.0244C11.7038 16.6599 12.6904 18.0465 13.8992 19.202C15.117 20.3664 16.5569 21.2997 18.1835 22.0374C18.6813 22.2596 19.1435 22.3574 19.5345 22.2685C19.8545 22.1885 20.1567 21.9752 20.4323 21.5574C21.3389 20.1797 22.3966 19.5131 23.561 19.4153C24.681 19.3175 25.8276 19.762 27.0009 20.5797L27.5253 20.953L27.5164 20.9264Z" fill="#FEFEFE"/>
</svg>
