<svg width="21" height="36" viewBox="0 0 21 36" fill="none" xmlns="http://www.w3.org/2000/svg">
<path d="M1.06419 4.01258C0.189243 3.15237 0.1779 1.74561 1.03811 0.87104C1.89831 -0.00353391 3.30507 -0.0148763 4.17965 0.844953L19.8632 16.1944L19.8708 16.2019L19.8851 16.2163L19.9112 16.2424L19.9256 16.2568L19.9509 16.284L19.9649 16.2987L19.9895 16.3256L20.0027 16.3411L20.0261 16.3687L20.0394 16.3838L20.0621 16.4122L20.0745 16.4273L20.0968 16.4564L20.1082 16.4715L20.1301 16.5014L20.1411 16.5173L20.1619 16.5468L20.1725 16.5626L20.1929 16.5936L20.2027 16.6088L20.2224 16.6405L20.2318 16.6556L20.2503 16.687L20.2598 16.7029L20.2776 16.735L20.2863 16.7509L20.3033 16.7838L20.3116 16.7997L20.3275 16.8322L20.3483 16.8764L20.3505 16.8817L20.3577 16.8976L20.3721 16.9316L20.3793 16.9475L20.3929 16.9815L20.3993 16.9978L20.4118 17.0318L20.4182 17.0485L20.4303 17.0833L20.436 17.0991L20.4466 17.1343L20.4606 17.1793L20.4624 17.1853L20.467 17.202L20.4764 17.2371L20.481 17.2538L20.4897 17.2897L20.4935 17.3063L20.501 17.3422L20.5048 17.3581L20.5116 17.3944L20.515 17.411L20.5207 17.447L20.5233 17.4636L20.529 17.4999L20.5309 17.5165L20.535 17.5532L20.5369 17.5695L20.5403 17.6061L20.5415 17.6228L20.5445 17.6591L20.5452 17.6757L20.5471 17.7124L20.5479 17.7286L20.5483 17.7661L20.549 17.7823V17.819L20.5483 17.8356L20.5479 17.8727L20.5471 17.8893L20.5452 17.926L20.5445 17.9422L20.5415 17.9789L20.5403 17.9952L20.5369 18.0319L20.535 18.0485L20.5309 18.0852L20.529 18.1014L20.5233 18.1381L20.5207 18.1544L20.515 18.1906L20.5116 18.2069L20.5048 18.2436L20.501 18.2595L20.4935 18.2954L20.4897 18.3116L20.481 18.3479L20.4764 18.3642L20.467 18.3997L20.4624 18.416L20.4606 18.4224L20.4466 18.467L20.436 18.5026L20.4303 18.5184L20.4182 18.5532L20.4118 18.5695L20.3993 18.6035L20.3929 18.6201L20.3793 18.6542L20.3721 18.6701L20.3577 18.7041L20.3505 18.72L20.3483 18.7256L20.3275 18.7691L20.3116 18.802L20.3033 18.8179L20.2863 18.8508L20.2776 18.8663L20.2598 18.8988L20.2503 18.9143L20.2318 18.9461L20.2224 18.9612L20.2027 18.9929L20.1929 19.0081L20.1725 19.0387L20.1619 19.0546L20.1411 19.0844L20.1301 19.1003L20.1082 19.1298L20.0968 19.1449L20.0745 19.174L20.0621 19.1892L20.0394 19.2175L20.0261 19.2326L20.0027 19.2606L19.9895 19.2757L19.9649 19.303L19.9509 19.3173L19.9256 19.3445L19.9112 19.3593L19.8851 19.385L19.8708 19.3994L19.8632 19.4073L4.17965 34.7564C3.30507 35.6166 1.89831 35.6052 1.03811 34.7307C0.1779 33.8561 0.189243 32.4489 1.06419 31.5891L15.1509 17.8014L1.06419 4.01371V4.01258Z" fill="#809E26"/>
</svg>
