<svg width="21" height="36" viewBox="0 0 21 36" fill="none" xmlns="http://www.w3.org/2000/svg">
<path d="M19.7368 4.01258C20.6117 3.15237 20.6231 1.74561 19.7629 0.87104C18.9027 -0.00353391 17.4959 -0.0148763 16.6213 0.844953L0.93779 16.1944L0.930228 16.2019L0.915861 16.2163L0.889774 16.2424L0.875407 16.2568L0.850075 16.284L0.836086 16.2987L0.811511 16.3256L0.798278 16.3411L0.774837 16.3687L0.761605 16.3838L0.73892 16.4122L0.726443 16.4273L0.704137 16.4564L0.692794 16.4715L0.670866 16.5014L0.659901 16.5173L0.639107 16.5468L0.628521 16.5626L0.608104 16.5936L0.598274 16.6088L0.578614 16.6405L0.569162 16.6556L0.550636 16.687L0.541184 16.7029L0.523414 16.735L0.514719 16.7509L0.497705 16.7838L0.489387 16.7997L0.473508 16.8322L0.452713 16.8764L0.450445 16.8817L0.443261 16.8976L0.428894 16.9316L0.421711 16.9475L0.4081 16.9815L0.401673 16.9978L0.389196 17.0318L0.382769 17.0485L0.37067 17.0833L0.364999 17.0991L0.354413 17.1343L0.340424 17.1793L0.338533 17.1853L0.333996 17.202L0.324544 17.2371L0.320007 17.2538L0.311312 17.2897L0.307531 17.3063L0.299969 17.3422L0.296188 17.3581L0.289383 17.3944L0.28598 17.411L0.280309 17.447L0.277663 17.4636L0.271991 17.4999L0.270101 17.5165L0.265942 17.5532L0.264052 17.5695L0.260649 17.6061L0.259515 17.6228L0.25649 17.6591L0.255734 17.6757L0.253844 17.7124L0.253087 17.7286L0.252709 17.7661L0.251953 17.7823V17.819L0.252709 17.8356L0.253087 17.8727L0.253844 17.8893L0.255734 17.926L0.25649 17.9422L0.259515 17.9789L0.260649 17.9952L0.264052 18.0319L0.265942 18.0485L0.270101 18.0852L0.271991 18.1014L0.277663 18.1381L0.280309 18.1544L0.28598 18.1906L0.289383 18.2069L0.296188 18.2436L0.299969 18.2595L0.307531 18.2954L0.311312 18.3116L0.320007 18.3479L0.324544 18.3642L0.333996 18.3997L0.338533 18.416L0.340424 18.4224L0.354413 18.467L0.364999 18.5026L0.37067 18.5184L0.382769 18.5532L0.389196 18.5695L0.401673 18.6035L0.4081 18.6201L0.421711 18.6542L0.428894 18.6701L0.443261 18.7041L0.450445 18.72L0.452713 18.7256L0.473508 18.7691L0.489387 18.802L0.497705 18.8179L0.514719 18.8508L0.523414 18.8663L0.541184 18.8988L0.550636 18.9143L0.569162 18.9461L0.578614 18.9612L0.598274 18.9929L0.608104 19.0081L0.628521 19.0387L0.639107 19.0546L0.659901 19.0844L0.670866 19.1003L0.692794 19.1298L0.704137 19.1449L0.726443 19.174L0.73892 19.1892L0.761605 19.2175L0.774837 19.2326L0.798278 19.2606L0.811511 19.2757L0.836086 19.303L0.850075 19.3173L0.875407 19.3445L0.889774 19.3593L0.915861 19.385L0.930228 19.3994L0.93779 19.4073L16.6213 34.7564C17.4959 35.6166 18.9027 35.6052 19.7629 34.7307C20.6231 33.8561 20.6117 32.4489 19.7368 31.5891L5.6501 17.8014L19.7368 4.01371V4.01258Z" fill="#809E26"/>
</svg>
