<svg width="33" height="28" viewBox="0 0 33 28" fill="none" xmlns="http://www.w3.org/2000/svg">
<path d="M13.5182 24.2377C14.1154 23.8575 14.7821 23.1933 15.3846 22.5923C15.6404 22.3372 15.8869 22.0915 16.1091 21.8852C16.2104 21.7911 16.3256 21.6645 16.4394 21.5398C16.7104 21.2412 16.983 20.9413 17.3711 20.7349C17.582 20.6223 17.8281 20.6432 18.014 20.7664C18.6641 21.1508 21.4205 23.2272 22.8862 24.3312C23.2426 24.6196 23.6345 24.8936 24.0023 25.1745C24.5957 25.6341 25.7522 26.5336 26.2129 26.0087C26.5251 25.6515 26.8267 24.0913 27.0346 23.0134L27.1654 22.3537L28.9059 14.1152L30.6584 5.91025L30.7937 5.33617C31.0428 4.29944 31.4446 2.62247 31.1906 2.14095C30.8417 1.47916 29.8756 1.891 29.0661 2.23532C28.8714 2.31883 28.6825 2.39967 28.5283 2.45823L25.1736 3.75187C23.8073 4.28213 22.4485 4.80996 21.3408 5.23213C17.5329 6.68422 14.1222 8.00553 10.7123 9.32688C8.25224 10.2793 5.77778 11.2177 3.32336 12.1846C2.82558 12.3792 2.31041 12.581 2.12334 12.8297C2.05683 12.9181 2.02246 12.9378 2.02662 12.9416C2.12791 13.0535 2.3774 13.1458 2.61665 13.2138C3.53206 13.4746 4.51397 13.7795 5.49097 14.0822L8.33541 14.9618C8.5482 15.0275 8.72136 15.0907 8.87024 15.1451C9.19263 15.2622 9.32904 15.3122 9.65068 15.1027C12.8402 13.0157 16.3303 10.8432 19.773 8.70139C21.5724 7.58227 23.3579 6.47113 24.926 5.48317L25.0598 5.39304C25.3119 5.22071 25.6203 5.00827 26.0047 4.95537C26.8048 4.84652 27.1628 5.11133 27.2296 5.60718C27.3086 6.1847 26.555 6.84974 25.9416 7.39172C25.7644 7.54783 25.6014 7.69173 25.4937 7.80095C25.3149 7.98273 25.174 8.10043 25.0217 8.22743L24.8142 8.40165C24.7189 8.48441 24.6282 8.57571 24.5382 8.6657C24.432 8.77114 24.3277 8.87542 24.2026 8.9854C21.2307 11.6912 18.2733 14.4805 15.2478 17.119C14.4847 17.7857 14.1355 18.0904 14.0123 18.3376L13.9956 18.369C13.9197 18.5486 13.9094 18.824 13.8921 19.3052C13.8803 19.626 13.8652 20.0213 13.832 20.4745C13.8006 20.8978 13.7492 21.4581 13.6967 22.0292C13.6298 22.7661 13.561 23.5136 13.5183 24.2377H13.5182ZM16.2697 23.4822C15.2572 24.4917 14.0894 25.6566 12.9264 25.7945L12.8402 25.7969C12.494 25.7901 12.2186 25.5031 12.2253 25.1572C12.2461 24.105 12.3485 22.9992 12.4472 21.916C12.4903 21.4428 12.5341 20.9666 12.5775 20.3834C12.6142 19.8906 12.6275 19.5419 12.6373 19.2607C12.6611 18.6065 12.6747 18.2375 12.8622 17.8328L12.8864 17.7771C13.1218 17.3043 13.5303 16.9489 14.4215 16.1722C17.3404 13.6426 20.4404 10.2995 23.3692 8.04686C23.4625 7.96598 23.5562 7.87173 23.6492 7.77948L23.6837 7.74469L20.4374 9.76818C17.0245 11.8915 13.5651 14.0452 10.3389 16.1538C9.48931 16.7064 9.17819 16.5937 8.44196 16.325C8.30778 16.2762 8.15065 16.2191 7.96618 16.162L5.12166 15.2824C4.19378 14.9948 3.26098 14.705 2.27184 14.4234C1.85422 14.3043 1.3913 14.1115 1.09647 13.7876C0.696235 13.3469 0.587311 12.7848 1.12021 12.0769C1.52536 11.5383 2.20689 11.2716 2.86528 11.0134C5.32121 10.047 7.79899 9.10858 10.2602 8.15574C13.9116 6.74108 17.5589 5.3279 20.8932 4.05645C22.3914 3.48574 23.5657 3.02959 24.7211 2.58133L28.0811 1.28256C28.2523 1.21756 28.4118 1.14943 28.5739 1.0799C29.8684 0.528475 31.4128 -0.129157 32.3021 1.55538C32.7753 2.45226 32.3051 4.4134 32.0137 5.62624L31.8882 6.17098L30.1357 14.3759L28.3952 22.6099L28.2689 23.2493C28.0346 24.4652 27.6941 26.2259 27.1571 26.8374C25.9109 28.2521 24.1391 26.8737 23.2312 26.1666C22.8714 25.8887 22.4984 25.5942 22.1287 25.3342C20.8365 24.361 18.5185 22.6156 17.6957 22.0434C17.588 22.1447 17.478 22.2652 17.3692 22.3858C17.2426 22.5241 17.1163 22.6637 16.9648 22.8047C16.7414 23.0122 16.5097 23.2426 16.2697 23.4822Z" fill="#809E26"/>
</svg>
