<svg width="30" height="29" viewBox="0 0 30 29" fill="none" xmlns="http://www.w3.org/2000/svg">
<path d="M28.4853 13.7113C28.4434 12.037 28.0715 10.4416 27.4328 8.98989C26.7698 7.48486 25.8192 6.13198 24.651 5.0019C23.4858 3.87447 22.1013 2.96647 20.5676 2.34778C19.0909 1.75287 17.4741 1.42405 15.7797 1.42405C14.1062 1.42405 12.5089 1.74463 11.0481 2.3263C9.53026 2.93029 8.15644 3.81821 6.99498 4.92144C5.82936 6.02846 4.87425 7.35458 4.19885 8.832C3.54651 10.2584 3.15266 11.8283 3.08011 13.48L3.07028 14.0341C3.07066 14.6173 3.11039 15.19 3.18559 15.7478C3.26344 16.3193 3.37944 16.8767 3.52987 17.4171C3.68447 17.9701 3.87642 18.5083 4.10055 19.0265C4.32959 19.553 4.59307 20.0616 4.88786 20.5476L5.04166 20.8014L2.94446 26.9946L9.39956 24.9427L9.63685 25.0737C10.1014 25.3277 10.5856 25.5564 11.0856 25.7533C11.5781 25.9476 12.0856 26.1134 12.6061 26.2461C13.1178 26.3768 13.6428 26.4775 14.1768 26.544C14.701 26.6093 15.2366 26.6438 15.7797 26.6438C17.5036 26.6438 19.1469 26.3041 20.644 25.6895C22.1988 25.0508 23.5996 24.1132 24.7701 22.951C25.9406 21.7892 26.8844 20.4004 27.528 18.8572C28.1475 17.3722 28.4895 15.7428 28.4895 14.0341L28.4853 13.7113ZM21.6161 17.2792L20.1133 16.5521L19.6892 16.3546C19.5936 16.3137 19.5011 16.2711 19.4043 16.2363L19.2622 16.4272L19.029 16.7203L18.7168 17.0941L18.3626 17.5033C18.2617 17.6163 18.1559 17.7058 18.0414 17.7719C17.9227 17.8396 17.7957 17.8827 17.6555 17.899C17.5338 17.9129 17.4094 17.9062 17.2813 17.8775C17.1577 17.8503 17.0292 17.8019 16.8931 17.7353L16.7011 17.6497C16.4543 17.5443 16.088 17.3866 15.6432 17.1319C15.1991 16.8768 14.676 16.5234 14.1189 16.0279C13.9333 15.8624 13.7561 15.6891 13.5917 15.5152C13.405 15.3183 13.2349 15.1214 13.083 14.9339C12.8963 14.7034 12.7322 14.4811 12.5954 14.2842C12.3966 13.997 12.2515 13.7582 12.1756 13.6267C12.0739 13.4536 12.0221 13.2885 12.0077 13.1342C11.993 12.977 12.0175 12.8317 12.067 12.6972C12.1116 12.58 12.1691 12.4848 12.2315 12.4032C12.2904 12.3257 12.3551 12.26 12.4178 12.1984C12.5731 12.028 12.7194 11.8518 12.8687 11.6761L12.9506 11.562C13.0092 11.4642 13.0546 11.3812 13.1057 11.2795L13.0917 11.2484C13.0278 11.118 12.7515 10.4539 12.4842 9.81138L12.0609 8.7957C12.0009 8.64905 12.038 8.64712 12.0274 8.6475L11.9117 8.65324C11.8195 8.65324 11.7148 8.64591 11.6071 8.63872L11.5587 8.6354C11.4706 8.62935 11.3796 8.6233 11.2862 8.6233L11.1875 8.6357C11.1539 8.64326 11.1168 8.65574 11.0813 8.672C11.048 8.68712 11.0121 8.70833 10.9774 8.734C10.9441 8.75895 10.9105 8.78856 10.8803 8.82141L10.8141 8.89158C10.6705 9.04391 10.4411 9.28694 10.251 9.64411C10.0617 10.0005 9.90664 10.4773 9.90664 11.1035L9.9161 11.331L9.94294 11.5629L9.98793 11.7961L10.0496 12.0369C10.1217 12.2905 10.2181 12.5357 10.3221 12.7613C10.4264 12.9888 10.5394 13.1976 10.6456 13.3783C10.7559 13.5647 10.8599 13.7223 10.9423 13.8417C11.0303 13.9634 11.1285 14.0878 11.2091 14.214C11.4169 14.5198 12.0005 15.3726 12.8895 16.2926C13.7822 17.2163 14.9852 18.2071 16.4237 18.7722C17.7185 19.2752 18.4647 19.5039 18.9288 19.5958C19.3688 19.6831 19.5396 19.6427 19.6991 19.6046L19.8639 19.5661C19.9304 19.5563 20.0052 19.5401 20.0702 19.5356C20.1843 19.5261 20.3515 19.4726 20.5378 19.3883C20.7264 19.3029 20.9323 19.1868 21.1243 19.0523C21.2793 18.9438 21.4229 18.8245 21.5344 18.705C21.6266 18.6056 21.6962 18.5063 21.7279 18.4156L21.7302 18.4104C21.7778 18.2793 21.8167 18.1509 21.8466 18.0296C21.8791 17.8988 21.9022 17.7748 21.9157 17.6633L21.9426 17.4295L21.6161 17.2792ZM20.6557 15.4015L22.3535 16.2236C22.5103 16.2988 22.6437 16.3638 22.7559 16.4387C22.8772 16.5203 22.9771 16.6144 23.0591 16.7448L23.0666 16.7566C23.1256 16.8556 23.1725 17.0198 23.191 17.222C23.2076 17.394 23.2065 17.5989 23.1789 17.817C23.1577 17.9757 23.1252 18.1508 23.0806 18.3345C23.0405 18.4952 22.9902 18.6647 22.9271 18.8378C22.8474 19.0661 22.708 19.2866 22.5322 19.4899C22.3421 19.7106 22.1044 19.9157 21.8515 20.093C21.5745 20.2865 21.2702 20.453 20.9838 20.5755C20.6822 20.7043 20.3953 20.7871 20.1749 20.8056C20.1265 20.8087 20.0691 20.8226 20.0124 20.8359L19.9976 20.8389C19.7364 20.9013 19.4595 20.9679 18.8691 20.8704C18.2984 20.7759 17.4253 20.5239 15.9633 19.9569C14.3389 19.3197 12.9979 18.2249 12.0077 17.2078C11.0224 16.1957 10.3829 15.2586 10.1576 14.9276L10.0748 14.8117C9.98827 14.6942 9.77515 14.4047 9.5514 14.0256C9.42402 13.8075 9.28792 13.5554 9.16243 13.2806C9.0377 13.0077 8.92133 12.7089 8.83101 12.3971C8.80454 12.345 8.76446 12.142 8.74669 12.0714L8.68892 11.7632C8.6704 11.6483 8.65527 11.5361 8.64696 11.4311C8.63751 11.3226 8.63183 11.2131 8.63183 11.1035C8.63183 10.2297 8.8484 9.56184 9.11411 9.06066C9.37945 8.55986 9.69197 8.22889 9.88774 8.0214L9.94445 7.9609C10.0352 7.86188 10.1312 7.77678 10.2268 7.70683C10.3322 7.62936 10.4414 7.5663 10.5495 7.51719C10.6739 7.45976 10.7979 7.41896 10.9128 7.39288C11.0511 7.36112 11.1792 7.34841 11.2862 7.34841C11.4094 7.34841 11.5353 7.35764 11.6547 7.36596C11.7481 7.37238 11.852 7.3804 11.9446 7.37775C12.1313 7.3649 12.3475 7.35034 12.5825 7.47091C12.8086 7.58694 13.0357 7.82653 13.2356 8.31146C13.566 9.101 13.8929 9.89255 14.2293 10.6794C14.2648 10.7509 14.298 10.8257 14.3226 10.9009C14.3483 10.9806 14.3687 11.0672 14.3786 11.161C14.3895 11.2626 14.3884 11.3693 14.3695 11.4773C14.3513 11.5843 14.315 11.6963 14.2583 11.8101C14.1775 11.9752 14.1091 12.1143 14.0127 12.2689C13.9175 12.4072 13.8075 12.5349 13.6994 12.66L13.6409 12.728C13.5301 12.8615 13.4205 12.993 13.3302 13.0852C13.3989 13.1998 13.5021 13.3631 13.6374 13.5574C13.758 13.7312 13.9036 13.9284 14.0687 14.1321C14.204 14.2995 14.3536 14.4723 14.5127 14.6405C14.6514 14.7875 14.8022 14.9348 14.9632 15.077C15.4463 15.5063 15.8987 15.8115 16.2823 16.0315C16.6655 16.2508 16.9842 16.388 17.1989 16.4795L17.4634 16.5999C17.5927 16.4506 17.8236 16.1826 18.0428 15.9142L18.2526 15.6535L18.3951 15.4599C18.5074 15.294 18.6283 15.1738 18.7579 15.0891C18.8925 15.0021 19.0354 14.9544 19.1877 14.9366C19.3143 14.9223 19.4341 14.9315 19.5509 14.9557C19.6616 14.9787 19.7709 15.0156 19.8839 15.0576L20.1998 15.1907L20.6556 15.4015H20.6557ZM25.5377 4.09058C26.8208 5.33215 27.8655 6.81854 28.5935 8.47207C29.2965 10.0678 29.7062 11.8205 29.7553 13.6626L29.7636 14.0338C29.764 15.9141 29.3871 17.708 28.7042 19.3441C27.9955 21.0423 26.9558 22.5722 25.6666 23.8524C24.3774 25.1314 22.8369 26.1629 21.1259 26.8667C19.478 27.5444 17.6718 27.9184 15.7797 27.9184C15.1848 27.9184 14.5968 27.8804 14.0204 27.8086C13.4323 27.7349 12.8543 27.6246 12.2916 27.481C11.7575 27.3442 11.2314 27.1749 10.7182 26.9768C10.22 26.7841 9.73401 26.563 9.26572 26.318L0.932617 28.9658L3.64897 20.9481C3.36741 20.4598 3.11263 19.9499 2.88888 19.4219C2.66097 18.8829 2.46486 18.3257 2.30573 17.755C2.1379 17.1548 2.00939 16.5393 1.92356 15.913C1.83967 15.2973 1.79585 14.669 1.79585 14.0341C1.80152 13.8345 1.79774 13.6221 1.80984 13.4255C1.88995 11.6068 2.32312 9.87709 3.04238 8.3048C3.78542 6.6777 4.83572 5.2185 6.11813 4.00074C7.39714 2.78563 8.90817 1.80894 10.5783 1.14337C12.1869 0.502372 13.9429 0.14917 15.7797 0.14917C17.6404 0.14917 19.418 0.511295 21.0428 1.16666C22.7303 1.84811 24.2541 2.84862 25.5377 4.09058Z" fill="#809E26"/>
</svg>
