<svg width="158" height="45" viewBox="0 0 158 45" fill="none" xmlns="http://www.w3.org/2000/svg">
<path d="M22.0352 9.11914L11.9658 36.7003C15.3039 29.9428 18.642 23.1854 21.9804 16.4284C23.8169 20.1459 25.653 23.8635 27.4902 27.5814H18.3105L35.0962 33.6963L22.0353 9.11914H22.0352Z" fill="white"/>
<path fill-rule="evenodd" clip-rule="evenodd" d="M22.0352 9.11912L35.0961 33.6963L18.3105 27.5814C17.1706 29.9273 16.0303 32.2729 14.8904 34.6181C23.7893 36.0645 32.6886 37.5105 41.5875 38.9562C35.0519 26.2714 28.516 13.5861 21.9804 0.900879L3.77783 39.4543L57.7627 44.3016C42.4968 41.7682 27.2317 39.2336 11.9658 36.7002L22.0352 9.11909L22.0352 9.11912Z" fill="#809E26"/>
<path d="M21.9803 0.900879C14.8642 14.7192 7.74854 28.5375 0.632812 42.3559C19.676 43.0044 38.7187 43.6534 57.7626 44.3016L3.77776 39.4544L21.9803 0.900917V0.900879Z" fill="white"/>
<path d="M137.18 27.7195H137.355H140.383H140.559L140.622 27.879L145.053 38.6374L145.18 38.956H144.83H142.088H141.913L141.85 38.7965L138.869 31.4011L135.889 38.7965L135.825 38.956H135.65H132.908H132.558L132.685 38.6374L137.116 27.879L137.18 27.7195Z" fill="white"/>
<path d="M152.284 30.3814H151.2V32.4533H152.284C153.134 32.4533 153.734 32.3763 154.085 32.222C154.435 32.0682 154.611 31.7999 154.611 31.4174C154.611 31.0349 154.435 30.7665 154.085 30.6123C153.734 30.4585 153.134 30.3814 152.284 30.3814ZM148.156 27.7195H148.395H150.929H152.284C154.016 27.7195 155.307 28.0517 156.157 28.7158C157.007 29.3798 157.432 30.2646 157.432 31.3694C157.432 32.7931 156.816 33.8132 155.583 34.4296L157.83 38.6215L158.006 38.956H157.623H155.009H154.834L154.77 38.8128L152.81 35.1149H152.284H151.2V38.7171V38.956H150.929H148.395H148.156V38.7171V27.9587V27.7195Z" fill="white"/>
<path d="M121.157 27.7195H121.396H130.672H130.911V27.9587V30.1421V30.3814H130.672H127.628V38.7171V38.956H127.373H124.679H124.424V38.7171V30.3814H121.396H121.157V30.1421V27.9587V27.7195Z" fill="white"/>
<path d="M111.64 31.1782C111.64 31.3377 111.865 31.481 112.317 31.6087C112.768 31.7361 113.316 31.8771 113.958 32.0309C114.601 32.1851 115.244 32.3843 115.887 32.6288C116.53 32.873 117.077 33.2475 117.528 33.7525C117.98 34.2571 118.206 34.8652 118.206 35.5772C118.206 36.7674 117.762 37.6624 116.875 38.263C115.988 38.8632 114.753 39.1632 113.169 39.1632C111.246 39.1632 109.615 38.7173 108.276 37.8245L108.117 37.6972L108.228 37.5059L109.424 35.5455L109.552 35.3384L109.759 35.4657C109.897 35.5508 110.08 35.6517 110.309 35.7685C110.537 35.8853 110.97 36.0421 111.607 36.2386C112.245 36.4352 112.835 36.5334 113.376 36.5334C113.748 36.5334 114.059 36.499 114.309 36.4299C114.559 36.3607 114.734 36.2677 114.835 36.1509C114.936 36.0341 115.002 35.9253 115.034 35.8244C115.066 35.7235 115.082 35.609 115.082 35.4816C115.082 35.2798 114.96 35.1017 114.715 34.9475C114.471 34.7937 114.155 34.6633 113.767 34.5571C113.379 34.4509 112.952 34.3447 112.484 34.2385C112.017 34.1323 111.549 33.9966 111.082 33.8322C110.614 33.6674 110.186 33.4762 109.798 33.2581C109.411 33.0404 109.095 32.7456 108.85 32.3737C108.605 32.0018 108.483 31.5713 108.483 31.0826C108.483 29.9351 108.951 29.0534 109.886 28.4369C110.821 27.8209 111.953 27.5125 113.281 27.5125C113.94 27.5125 114.564 27.5816 115.154 27.7196C115.743 27.8579 116.235 28.0333 116.628 28.2457C117.021 28.4581 117.308 28.6229 117.489 28.7397C117.669 28.8564 117.823 28.9683 117.951 29.0745L117.967 29.0904L118.094 29.2019L117.998 29.3773L116.851 31.2262L116.708 31.4492L116.501 31.2897C116.458 31.2474 116.304 31.1491 116.038 30.9949C115.773 30.8411 115.347 30.6684 114.763 30.4771C114.179 30.2859 113.605 30.1903 113.042 30.1903C112.5 30.1903 112.131 30.2938 111.934 30.5009C111.738 30.7081 111.639 30.9341 111.639 31.1782H111.64Z" fill="white"/>
<path d="M100.034 30.3814H98.9342V32.4533H100.034C100.884 32.4533 101.487 32.3763 101.843 32.222C102.199 32.0682 102.377 31.7999 102.377 31.4174C102.377 31.0349 102.199 30.7665 101.843 30.6123C101.487 30.4585 100.884 30.3814 100.034 30.3814ZM95.8901 27.7195H96.129H98.6794H100.034C101.755 27.7195 103.041 28.057 103.891 28.7316C104.741 29.4063 105.166 30.3017 105.166 31.4174C105.166 32.5437 104.741 33.4413 103.891 34.111C103.041 34.7804 101.755 35.1149 100.034 35.1149H98.9342V38.7171V38.956H98.6794H96.129H95.8901V38.7171V27.9587V27.7195Z" fill="white"/>
<path d="M79.2644 27.7195H79.5033H82.3402H82.4679L82.5477 27.8314L86.0857 33.4095L89.6559 27.8314L89.7356 27.7195H89.8633H92.7003H92.9391V27.9587V38.7171V38.956H92.7003H90.1819H89.9427V38.7171V32.3418L86.2928 37.9677L86.0857 38.3025L85.8627 37.9677L82.2608 32.3418V38.7171V38.956H82.0216H79.5033H79.2644V38.7171V27.9587V27.7195Z" fill="white"/>
<path d="M68.3124 27.7195H68.4878H71.5159H71.6913L71.7552 27.879L76.1859 38.6374L76.3133 38.956H75.9629H73.2213H73.0459L72.9824 38.7965L70.0019 31.4011L67.0213 38.7965L66.9578 38.956H66.7824H64.0408H63.6904L63.8178 38.6374L68.2485 27.879L68.3124 27.7195Z" fill="white"/>
<path d="M51.1288 37.5297C49.9492 36.4405 49.3596 35.0458 49.3596 33.3458C49.3596 31.6457 49.9492 30.2511 51.1288 29.1622C52.3084 28.0729 53.8009 27.5283 55.6075 27.5283C56.6594 27.5283 57.6209 27.7301 58.4921 28.1342C59.3636 28.5378 60.0647 29.101 60.5961 29.8236L60.7394 30.0149L60.5481 30.1581L58.5881 31.6884L58.3964 31.8317L58.2373 31.6405C57.6103 30.8649 56.7338 30.4771 55.6075 30.4771C54.6724 30.4771 53.8939 30.7455 53.2725 31.2818C52.6508 31.8185 52.3401 32.5063 52.3401 33.3458C52.3401 34.1852 52.6508 34.8735 53.2725 35.4098C53.8939 35.9465 54.6725 36.2149 55.6075 36.2149C56.7017 36.2149 57.5785 35.8165 58.2373 35.0194L58.3964 34.8282L58.5881 34.9718L60.5481 36.5176L60.7394 36.6613L60.5961 36.8525C60.0647 37.5853 59.3636 38.1541 58.4921 38.5578C57.6209 38.9615 56.6594 39.1633 55.6075 39.1633C53.8009 39.1633 52.3084 38.6187 51.1288 37.5298V37.5297Z" fill="white"/>
<path fill-rule="evenodd" clip-rule="evenodd" d="M68.6008 38.9561L70.0019 35.4797L71.403 38.9561H68.6008Z" fill="#809E26"/>
<path fill-rule="evenodd" clip-rule="evenodd" d="M137.468 38.9561L138.869 35.4797L140.27 38.9561H137.468Z" fill="#809E26"/>
</svg>
