<svg width="100" height="60" viewBox="0 0 100 60" fill="none" xmlns="http://www.w3.org/2000/svg">
<path d="M38.1785 0.626971H39.5347V24.3662H38.1785V13.0727H21.7648V24.3662H20.4085V0.626971H21.7648V11.7845H38.1785V0.626971ZM46.3854 0.626971H61.9517V1.9153H47.7416V11.7832H60.9342V13.0714H47.7416V23.0754H62.2564V24.3636H46.3854V0.624512V0.626971ZM64.5294 0.626971H83.7237V1.9153H74.8053V24.3648H73.4491V1.9153H64.5307V0.626971H64.5294ZM14.8474 59.4994H13.4911V56.3121C9.62509 56.2668 6.55612 55.379 4.28434 53.65C2.01256 51.921 0.875488 49.5069 0.875488 46.409C0.875488 43.3111 2.0113 40.8983 4.28434 39.168C6.55612 37.439 9.62509 36.5511 13.4911 36.5058V33.3173H14.8474V36.5058C18.7134 36.5511 21.7824 37.4378 24.0542 39.168C26.3259 40.8971 27.4631 43.3111 27.4631 46.409C27.4631 49.5069 26.3272 51.9197 24.0542 53.65C21.7824 55.379 18.7134 56.2668 14.8474 56.3121V59.4994ZM5.19856 40.0671C3.2202 41.5821 2.2317 43.6965 2.2317 46.409C2.2317 49.1216 3.22146 51.2359 5.19856 52.7508C7.17693 54.2657 9.94117 55.0453 13.4911 55.0906V37.7273C9.94117 37.7727 7.17819 38.5522 5.19856 40.0671ZM14.8474 37.7273V55.0906C18.3973 55.0453 21.1616 54.2657 23.1399 52.7508C25.1183 51.2359 26.1068 49.1216 26.1068 46.409C26.1068 43.6965 25.117 41.5821 23.1399 40.0671C21.1616 38.5522 18.3973 37.7727 14.8474 37.7273ZM31.0231 50.8342C30.503 49.3986 30.2437 47.9226 30.2437 46.4077C30.2437 44.8927 30.503 43.4182 31.0231 41.9813C31.5432 40.5457 32.295 39.2397 33.2786 38.0648C34.2621 36.8899 35.5566 35.9455 37.161 35.2327C38.7666 34.52 40.5523 34.1648 42.5193 34.1648C44.509 34.1648 46.3061 34.5212 47.9117 35.2327C49.5173 35.9442 50.8118 36.8886 51.7954 38.0648C52.7789 39.241 53.5307 40.5457 54.0508 41.9813C54.5709 43.4169 54.8302 44.8927 54.8302 46.4077C54.8302 47.9226 54.5709 49.3973 54.0508 50.8342C53.5307 52.2698 52.7789 53.5756 51.7954 54.7506C50.8118 55.9267 49.5173 56.87 47.9117 57.5828C46.3061 58.2955 44.509 58.6507 42.5193 58.6507C40.5523 58.6507 38.7666 58.2943 37.161 57.5828C35.5566 56.8713 34.2621 55.9267 33.2786 54.7506C32.295 53.5756 31.5432 52.2698 31.0231 50.8342ZM52.7776 50.3934C53.241 49.1165 53.4728 47.788 53.4728 46.409C53.4728 45.0301 53.241 43.7014 52.7776 42.4245C52.3142 41.1476 51.6468 39.9828 50.7766 38.9313C49.9064 37.8798 48.7529 37.0385 47.3173 36.4051C45.8817 35.7716 44.2823 35.4556 42.5193 35.4556C40.7563 35.4556 39.162 35.7716 37.7378 36.4051C36.3135 37.0385 35.1663 37.8798 34.2961 38.9313C33.4259 39.9828 32.7585 41.1463 32.2951 42.4245C31.8317 43.7014 31.5999 45.0301 31.5999 46.409C31.5999 47.788 31.8317 49.1165 32.2951 50.3934C32.7585 51.6704 33.4259 52.8352 34.2961 53.8868C35.1663 54.9383 36.3135 55.7807 37.7378 56.4129C39.162 57.0463 40.7563 57.3624 42.5193 57.3624C44.2823 57.3624 45.883 57.0463 47.3173 56.4129C48.7529 55.7794 49.9064 54.937 50.7766 53.8868C51.6468 52.8352 52.3142 51.6716 52.7776 50.3934ZM55.3718 34.5401H74.5661V35.8283H65.6465V58.2792H64.2901V35.8283H55.3718V34.5401ZM75.8884 50.8354C75.3683 49.3998 75.1088 47.924 75.1088 46.409C75.1088 44.8941 75.3683 43.4194 75.8884 41.9825C76.4085 40.5469 77.1602 39.2411 78.1437 38.0661C79.1272 36.8912 80.4219 35.9467 82.0275 35.2339C83.6331 34.5212 85.4188 34.166 87.3858 34.166C89.3755 34.166 91.1726 34.5224 92.7782 35.2339C94.3838 35.9454 95.6783 36.89 96.6618 38.0661C97.6453 39.2423 98.3972 40.5469 98.9173 41.9825C99.4374 43.4181 99.6967 44.8941 99.6967 46.409C99.6967 47.924 99.4374 49.3985 98.9173 50.8354C98.3972 52.271 97.6453 53.577 96.6618 54.7519C95.6783 55.9281 94.3838 56.8712 92.7782 57.584C91.1726 58.2968 89.3755 58.6519 87.3858 58.6519C85.4188 58.6519 83.6331 58.2955 82.0275 57.584C80.4219 56.8725 79.1272 55.9281 78.1437 54.7519C77.1602 53.577 76.4085 52.271 75.8884 50.8354ZM97.6441 50.3946C98.1075 49.1177 98.3391 47.7892 98.3391 46.4103C98.3391 45.0313 98.1075 43.7028 97.6441 42.4259C97.1806 41.1489 96.5133 39.9841 95.6431 38.9325C94.7729 37.881 93.6193 37.0397 92.1837 36.4063C90.7481 35.7729 89.1488 35.4568 87.3858 35.4568C85.6228 35.4568 84.0285 35.7729 82.6042 36.4063C81.18 37.0397 80.0326 37.881 79.1612 38.9325C78.291 39.9841 77.6236 41.1477 77.1602 42.4259C76.6968 43.7028 76.4651 45.0313 76.4651 46.4103C76.4651 47.7892 76.6968 49.1177 77.1602 50.3946C77.6236 51.6716 78.291 52.8365 79.1612 53.888C80.0314 54.9395 81.1787 55.7819 82.6042 56.4141C84.0285 57.0475 85.6228 57.3636 87.3858 57.3636C89.1488 57.3636 90.7493 57.0475 92.1837 56.4141C93.6193 55.7807 94.7729 54.9382 95.6431 53.888C96.5133 52.8365 97.1806 51.6728 97.6441 50.3946Z" fill="#EBECEC"/>
</svg>
